<?xml version="1.0" encoding="UTF-8"?>
<svg version="1.1" xmlns="http://www.w3.org/2000/svg" width="1254" height="1254">
<path d="M0 0 C3.85498863 0.00514262 7.70996197 -0.00147339 11.56494834 -0.00648667 C18.29994615 -0.01366297 25.03491183 -0.01352015 31.76991107 -0.00839235 C41.78555458 -0.00078771 51.80117128 -0.00471533 61.81681465 -0.01080896 C79.71084609 -0.0213116 97.6048632 -0.02043918 115.49889599 -0.01465113 C131.1586977 -0.00961093 146.81849418 -0.00831085 162.47829653 -0.01069642 C163.51889699 -0.01084919 164.55949744 -0.01100196 165.63163125 -0.01115936 C169.85625331 -0.01178209 174.08087536 -0.01241889 178.30549741 -0.01307889 C217.89868537 -0.0191906 257.49186424 -0.01365995 297.08505079 -0.0028851 C332.22593372 0.00660541 367.36680216 0.00575613 402.50768496 -0.00380708 C442.03058017 -0.01452697 481.55346735 -0.01875708 521.07636382 -0.01258255 C525.29308471 -0.01194116 529.50980561 -0.01131548 533.72652651 -0.01069642 C534.76471566 -0.01053827 535.80290481 -0.01038011 536.87255424 -0.01021717 C552.5187251 -0.00794661 568.16489015 -0.01059458 583.81106021 -0.01565553 C601.60961104 -0.02138415 619.40814536 -0.01992287 637.20669414 -0.00909404 C647.15578977 -0.00323983 657.10484961 -0.00281148 667.05394428 -0.01038639 C673.71303518 -0.0148953 680.37209759 -0.01203676 687.0311843 -0.00337685 C690.81613947 0.00134638 694.60102393 0.00308003 698.38597669 -0.00418882 C739.96624828 -0.07811653 739.96624828 -0.07811653 759.78991152 4.81943511 C760.85749697 5.07628081 761.92508242 5.33312651 763.02501895 5.59775542 C788.61589677 11.97449875 812.58844538 21.51639702 835.10241152 35.25693511 C835.67507754 35.60578765 836.24774355 35.95464019 836.83776309 36.31406401 C845.70686122 41.7552435 853.95719017 47.79263842 862.10241152 54.25693511 C863.10401309 55.02908355 864.10561465 55.80123198 865.13756777 56.59677886 C866.05409121 57.30963042 866.97061465 58.02248198 867.91491152 58.75693511 C869.13114199 59.70052886 869.13114199 59.70052886 870.37194277 60.66318511 C870.94299746 61.18912261 871.51405215 61.71506011 872.10241152 62.25693511 C872.10241152 62.91693511 872.10241152 63.57693511 872.10241152 64.25693511 C872.69119082 64.52119292 873.27997012 64.78545073 873.88659121 65.05771636 C876.18313737 66.30062455 877.71074318 67.60699992 879.55553652 69.44443511 C880.17428652 70.06060698 880.79303652 70.67677886 881.43053652 71.31162261 C882.38186465 72.2745523 882.38186465 72.2745523 883.35241152 73.25693511 C884.00209902 73.89888823 884.65178652 74.54084136 885.32116152 75.20224761 C885.93475527 75.81841948 886.54834902 76.43459136 887.18053652 77.06943511 C887.74160098 77.63275542 888.30266543 78.19607573 888.88073184 78.77646636 C890.10241152 80.25693511 890.10241152 80.25693511 890.10241152 82.25693511 C891.09241152 82.58693511 892.08241152 82.91693511 893.10241152 83.25693511 C895.00131036 85.4718339 896.78366833 87.68408601 898.53991152 90.00693511 C899.49682052 91.25182076 900.45384973 92.49661401 901.41100527 93.74131011 C901.87136172 94.34523589 902.33171816 94.94916167 902.8060248 95.57138823 C903.91151446 97.00873298 905.0451768 98.42433676 906.18444277 99.83506011 C916.98336988 113.47117987 925.6869128 128.56536921 933.10241152 144.25693511 C933.49573672 145.08443267 933.88906191 145.91193023 934.29430605 146.76450347 C949.26424474 178.89122831 956.28714329 214.26753152 956.23383929 249.60907363 C956.23691824 251.53748704 956.23691824 251.53748704 956.24005939 253.5048583 C956.24557368 257.0500265 956.24496336 260.5951703 956.2432818 264.14034139 C956.24254585 268.00632808 956.24758494 271.87230816 956.25185682 275.73829197 C956.25941003 283.39561488 956.26162851 291.05293081 956.26218587 298.71025706 C956.26310217 307.88683272 956.26977759 317.06340198 956.2765327 326.23997488 C956.29256781 348.41575231 956.29849317 370.59152904 956.30328145 392.76731122 C956.30561991 403.26472333 956.30922284 413.7621349 956.31297682 424.25954658 C956.32581019 460.21668707 956.3365295 496.17382726 956.33997943 532.13096999 C956.34020105 534.38676402 956.34042284 536.64255806 956.34064478 538.89835209 C956.34086541 541.15948729 956.3410859 543.42062248 956.34130622 545.68175768 C956.34174877 550.21772177 956.34219589 554.75368586 956.3426459 559.28964995 C956.34275529 560.41429937 956.34286468 561.53894879 956.34297739 562.6976785 C956.34660678 599.15193328 956.36252351 635.60616816 956.38583626 672.06041533 C956.41045789 710.63210799 956.42415335 749.20378929 956.42534734 787.77549003 C956.42551879 792.01346858 956.42573421 796.25144711 956.42598177 800.48942565 C956.42603754 801.53288048 956.42609331 802.57633532 956.42615077 803.65140999 C956.42729918 820.40972883 956.43830325 837.16802717 956.45286883 853.9263391 C956.46726811 870.7854347 956.47045149 887.64450414 956.46242885 904.50360419 C956.45798876 914.50536548 956.46176799 924.50704207 956.47766736 934.50879214 C956.48747659 941.20713237 956.48618294 947.9054138 956.47623113 954.60375359 C956.47088158 958.40885333 956.4699892 962.21379143 956.48273985 966.01887723 C956.69046851 1032.16871838 937.49833461 1089.3818274 895.10241152 1140.25693511 C894.39987246 1141.18248198 893.6973334 1142.10802886 892.97350527 1143.06162261 C892.35604434 1143.78607573 891.7385834 1144.51052886 891.10241152 1145.25693511 C890.44241152 1145.25693511 889.78241152 1145.25693511 889.10241152 1145.25693511 C888.86522402 1145.81896636 888.62803652 1146.38099761 888.38366152 1146.96006011 C886.81293456 1149.77587553 884.88769688 1151.73648927 882.60241152 1154.00693511 C881.80834902 1154.80615386 881.01428652 1155.60537261 880.19616152 1156.42881011 C878.10241152 1158.25693511 878.10241152 1158.25693511 876.10241152 1158.25693511 C875.84073184 1158.85248198 875.57905215 1159.44802886 875.30944277 1160.06162261 C859.19926099 1189.36234158 803.40718852 1208.63436769 773.66881777 1217.42881011 C747.62522507 1224.85579081 721.14512994 1225.56592229 694.22851504 1225.51387022 C690.39475462 1225.50872204 686.56100946 1225.51534573 682.72725131 1225.52035688 C676.03104604 1225.52752927 669.3348731 1225.52739283 662.63866641 1225.52226256 C652.68066931 1225.51465426 642.72269917 1225.51858743 632.76470222 1225.52467918 C614.97310431 1225.53517902 597.18152082 1225.53431053 579.38992156 1225.52852135 C563.81971811 1225.52348018 548.24951992 1225.52218152 532.67931582 1225.52456664 C531.12705401 1225.52479579 531.12705401 1225.52479579 529.54343338 1225.52502958 C525.34214167 1225.52565231 521.14084996 1225.52628911 516.93955825 1225.52694911 C477.56890918 1225.53306015 438.19826926 1225.52753122 398.82762159 1225.51675531 C363.88796333 1225.50726488 328.94831966 1225.50811417 294.00866152 1225.5176773 C254.70768727 1225.52839831 215.40672109 1225.53262667 176.10574557 1225.52645277 C171.91233279 1225.52581138 167.71892001 1225.5251857 163.52550723 1225.52456664 C162.4930646 1225.52440848 161.46062198 1225.52425033 160.39689322 1225.52408738 C144.84064124 1225.52181729 129.28439511 1225.52446393 113.72814395 1225.52952575 C96.03102183 1225.53525565 78.33391631 1225.53379038 60.63679625 1225.52296426 C50.74567211 1225.51711218 40.85458396 1225.51667856 30.96346079 1225.52425661 C24.34177111 1225.52876812 17.72011006 1225.52590236 11.0984246 1225.51724707 C7.33566905 1225.51252738 3.57298457 1225.51078252 -0.18976854 1225.51805903 C-20.99049267 1225.55530274 -42.02070273 1225.58782843 -62.39758848 1220.88193511 C-63.3918585 1220.66279448 -64.38612852 1220.44365386 -65.41052793 1220.21787261 C-68.24475259 1219.58451603 -71.0719383 1218.92739292 -73.89758848 1218.25693511 C-74.65604062 1218.07872222 -75.41449277 1217.90050933 -76.19592832 1217.71689605 C-85.06378392 1215.59789945 -93.48889816 1212.7569361 -101.89758848 1209.25693511 C-102.7059918 1208.92500151 -103.51439512 1208.59306792 -104.34729551 1208.25107573 C-123.33516053 1200.43030392 -123.33516053 1200.43030392 -130.74133848 1195.63193511 C-133.10395896 1194.12533654 -135.53443416 1192.85742087 -138.02258848 1191.56943511 C-152.94315089 1183.49626961 -166.1570169 1172.73113878 -178.60852598 1161.29990386 C-180.92854549 1159.17800319 -180.92854549 1159.17800319 -183.68665098 1157.12021636 C-184.41626035 1156.50533355 -185.14586973 1155.89045073 -185.89758848 1155.25693511 C-185.89758848 1154.59693511 -185.89758848 1153.93693511 -185.89758848 1153.25693511 C-186.49184629 1152.99912261 -187.0861041 1152.74131011 -187.69836973 1152.47568511 C-190.09061351 1151.14996564 -191.34540487 1149.85314647 -193.08508848 1147.75693511 C-195.65069343 1144.7085842 -198.28947192 1141.78054313 -201.02258848 1138.88193511 C-211.02018717 1127.79058203 -219.37585806 1115.12135387 -226.89758848 1102.25693511 C-227.5395416 1101.1986148 -228.18149473 1100.14029448 -228.84290098 1099.04990386 C-243.9054088 1073.67991518 -253.38550924 1045.35548051 -257.89758848 1016.25693511 C-258.07028436 1015.19150214 -258.24298024 1014.12606916 -258.42090933 1013.02835034 C-260.40636379 998.88200674 -260.18404803 984.68288899 -260.16072495 970.43025437 C-260.15651826 966.49676405 -260.16397701 962.5632918 -260.16987745 958.62980603 C-260.17860587 951.74913918 -260.17996357 944.86850211 -260.17637418 937.9878311 C-260.17105046 927.75533554 -260.17717929 917.52286863 -260.18545712 907.29037618 C-260.20067537 887.94772395 -260.20240436 868.60508483 -260.19993409 849.26242786 C-260.19809926 834.32073022 -260.19986501 819.37903687 -260.20415853 804.43733977 C-260.20476094 802.28834305 -260.20536214 800.13934633 -260.20596213 797.99034961 C-260.20686942 794.75172567 -260.20777809 791.51310174 -260.20869448 788.2744778 C-260.21712099 758.17278704 -260.22146187 728.07109789 -260.21728776 697.96940612 C-260.2170532 696.26818162 -260.2170532 696.26818162 -260.2168139 694.53258894 C-260.21600815 688.78468911 -260.21516238 683.03678928 -260.2143006 677.28888946 C-260.21412951 676.14740562 -260.21395842 675.00592179 -260.21378215 673.82984754 C-260.21343549 671.52149032 -260.21308696 669.21313309 -260.21273656 666.90477587 C-260.20738125 630.99936611 -260.21530563 595.09398091 -260.23377012 559.18857573 C-260.25450732 518.81675638 -260.26520945 478.44495224 -260.26119463 438.07312726 C-260.26079931 433.76443703 -260.26043776 429.4557468 -260.26009725 425.14705657 C-260.26000652 424.08620678 -260.25991579 423.02535699 -260.25982231 421.93236024 C-260.2586585 405.94871296 -260.26528822 389.9650811 -260.27590917 373.98143767 C-260.28798403 355.79161599 -260.28949395 337.60182816 -260.277119 319.41200595 C-260.27051141 309.24581486 -260.27207273 299.07970482 -260.28570752 288.91352028 C-260.29399708 282.10571377 -260.29119645 275.29796749 -260.27973225 268.4901658 C-260.27352006 264.62261847 -260.2717585 260.75522839 -260.28359558 256.88769059 C-260.42460284 207.36045341 -249.83620118 161.73438802 -223.89758848 119.25693511 C-223.0854791 117.90728667 -223.0854791 117.90728667 -222.25696348 116.53037261 C-214.65398769 104.2021829 -205.32364304 93.20800621 -195.89758848 82.25693511 C-194.90565488 81.07744292 -194.90565488 81.07744292 -193.89368223 79.87412261 C-190.72808661 76.14905931 -187.47763404 72.84960604 -183.67102598 69.77646636 C-181.75786262 68.1779127 -181.75786262 68.1779127 -179.58899473 65.93662261 C-166.60129268 53.00547079 -151.63881504 42.54115796 -135.89758848 33.25693511 C-135.03738096 32.7336563 -135.03738096 32.7336563 -134.15979551 32.1998062 C-112.81113746 19.22751112 -88.90597064 10.63733493 -64.64758848 5.00693511 C-63.61400205 4.76040191 -62.58041562 4.5138687 -61.5155084 4.2598648 C-41.30711589 -0.20447491 -20.58815747 -0.03953872 0 0 Z " fill="#48624F" transform="translate(279.89758847653866,15.743064891546965)"/>
<path d="M0 0 C0.92329102 0.48557373 0.92329102 0.48557373 1.86523438 0.98095703 C14.09722322 7.48374678 24.57253619 15.54579426 34.73828125 24.92578125 C36.78324667 26.80121586 38.87619475 28.59032533 41 30.375 C63.2949253 49.89981434 79.32248243 77.41706546 94.921875 102.23046875 C102.3473918 114.00896708 109.93364555 125.43297884 118.64257812 136.3046875 C119.86276925 137.82860966 121.06535274 139.36659042 122.265625 140.90625 C126.25870799 145.99978893 130.47814346 150.84043082 134.83984375 155.62109375 C136.80269933 157.78271952 138.7196626 159.97526262 140.625 162.1875 C142.83185812 164.72487835 145.10367239 167.1409486 147.5 169.5 C150.47057406 172.42467115 153.20729119 175.48619561 155.92578125 178.64453125 C158.01420448 181.01613052 160.15490083 183.32862402 162.31176758 185.63769531 C168.14817523 191.89066369 173.65585158 198.31756904 179 205 C179.90861863 206.09502769 180.81885834 207.1887117 181.73046875 208.28125 C194.1898831 223.34063593 204.88081923 239.72202024 214 257 C214.33692871 257.62616211 214.67385742 258.25232422 215.02099609 258.89746094 C223.69174164 275.07898607 230.09270576 292.06385678 234 310 C234.20109375 310.83402344 234.4021875 311.66804688 234.609375 312.52734375 C237.4357062 324.36795855 238.3394017 336.04643658 238.25 348.1875 C238.24756287 348.91133881 238.24512573 349.63517761 238.24261475 350.38095093 C238.19926976 361.36405398 237.71224149 372.14016699 236 383 C235.83242188 384.15242188 235.66484375 385.30484375 235.4921875 386.4921875 C234.67308744 391.80983712 233.52564558 396.83499625 232 402 C231.65582031 403.2065625 231.31164062 404.413125 230.95703125 405.65625 C224.58330447 427.35841013 213.57810471 446.74787006 199 464 C198.23816406 464.91523437 197.47632813 465.83046875 196.69140625 466.7734375 C191.36208151 472.94823443 185.46142541 478.04144095 179 483 C177.70449219 484.01900391 177.70449219 484.01900391 176.3828125 485.05859375 C164.07092584 494.42951045 150.69732899 500.30593861 136.14648438 505.265625 C134.30399526 505.89599434 132.47121866 506.55462765 130.640625 507.21875 C119.78631199 510.93058761 107.49126113 513 96 513 C95.99902319 512.42000695 95.99804638 511.84001389 95.99703997 511.24244529 C95.93878893 476.8799815 95.8650081 442.5175871 95.77101372 408.15520232 C95.75974533 404.03079599 95.74860691 399.90638932 95.73754883 395.78198242 C95.7342433 394.55032116 95.7342433 394.55032116 95.730871 393.29377785 C95.69548261 379.99228735 95.67062719 366.69079692 95.64965298 353.38927678 C95.6279032 339.74431517 95.59486063 326.09941473 95.55129844 312.45450515 C95.52476751 304.03243662 95.50708277 295.61044435 95.50065396 287.1883361 C95.49540447 281.41577968 95.47920234 275.64331929 95.45433434 269.8708143 C95.44030399 266.53854228 95.43277554 263.20658949 95.43499184 259.87426567 C95.43663571 256.26308637 95.42002031 252.65244218 95.39872742 249.04133606 C95.40357499 247.98588949 95.40842257 246.93044291 95.41341704 245.84301311 C95.39680793 238.9092706 95.39680793 238.9092706 92 233 C88.27512694 230.89972027 84.95365084 230.73894256 80.72851562 230.70947266 C79.48372437 230.69671295 78.23893311 230.68395325 76.9564209 230.67080688 C75.60636552 230.6677497 74.25630805 230.66552169 72.90625 230.6640625 C71.51289738 230.65763064 70.11954611 230.65090199 68.72619629 230.64389038 C65.81108468 230.63193937 62.8960914 230.62820748 59.98095703 230.62939453 C56.25170345 230.62959801 52.52320946 230.60225756 48.79413605 230.56785011 C45.91844211 230.54558227 43.04293135 230.54155688 40.16716003 230.54261398 C38.79246901 230.54025932 37.41777284 230.53144319 36.04316711 230.51594925 C34.11937324 230.49628851 32.19535521 230.50465007 30.27148438 230.51416016 C28.63197815 230.5098851 28.63197815 230.5098851 26.95935059 230.50552368 C23.3035944 231.11636204 21.64062383 232.45171113 19 235 C17.79056611 237.41886777 17.86972985 238.94698831 17.8613348 241.65019417 C17.85586036 242.63649382 17.85038591 243.62279347 17.84474558 244.63898098 C17.84376747 245.73040272 17.84278936 246.82182446 17.84178162 247.94631958 C17.83437465 249.6762255 17.83437465 249.6762255 17.82681805 251.44107902 C17.81407559 254.65180605 17.80580932 257.86250955 17.79939139 261.07325435 C17.79140152 264.53202359 17.7776989 267.99077063 17.76467896 271.44952393 C17.7428961 277.44524568 17.72475825 283.44096967 17.70907402 289.43671036 C17.68639184 298.10561683 17.65824674 306.77449873 17.62875474 315.44338439 C17.58105855 329.50700454 17.53779987 343.57063472 17.49731445 357.63427734 C17.45796983 371.29834779 17.4165461 384.96240931 17.37231445 398.62646484 C17.36822804 399.8891758 17.36822804 399.8891758 17.36405908 401.17739607 C17.35037978 405.40036301 17.33665947 409.62332981 17.32291877 413.84629655 C17.20892215 448.89751256 17.10211985 483.94874745 17 519 C11.14523874 519.57927329 5.3465584 520.12881777 -0.54296875 520.09765625 C-1.63544922 520.09443359 -2.72792969 520.09121094 -3.85351562 520.08789062 C-4.95373047 520.07951172 -6.05394531 520.07113281 -7.1875 520.0625 C-8.33025391 520.05798828 -9.47300781 520.05347656 -10.65039062 520.04882812 C-13.4336511 520.03718268 -16.21679572 520.02082997 -19 520 C-19.00634791 518.41164479 -19.00634791 518.41164479 -19.01282406 516.79120159 C-19.11591067 491.05352261 -19.22464525 465.31587225 -19.33933926 439.5782423 C-19.39467242 427.13184239 -19.44815458 414.68543962 -19.49731445 402.23901367 C-19.54015514 391.39367596 -19.58643285 380.54835936 -19.63687855 369.70305425 C-19.6634804 363.95789299 -19.68833353 358.21273593 -19.70907402 352.46755028 C-19.72863415 347.0643483 -19.75277611 341.66118652 -19.78049088 336.2580204 C-19.78986461 334.27100478 -19.79753873 332.28398033 -19.80341911 330.29695129 C-19.81167479 327.59169659 -19.82595001 324.88653958 -19.84178162 322.18132019 C-19.84324878 320.99212495 -19.84324878 320.99212495 -19.84474558 319.77890557 C-19.86887662 316.58952588 -19.98394915 314.04815255 -21 311 C-24.83344977 308.92004383 -28.23824614 308.73359566 -32.546875 308.69360352 C-33.85172852 308.67761612 -35.15658203 308.66162872 -36.50097656 308.64515686 C-37.91731372 308.63878113 -39.33365559 308.63338808 -40.75 308.62890625 C-42.21061289 308.61993352 -43.67122487 308.61081156 -45.13183594 308.60154724 C-48.18817372 308.5850889 -51.24440234 308.57736245 -54.30078125 308.57446289 C-58.21176391 308.56907054 -62.1217179 308.53134374 -66.03240967 308.48571873 C-69.04707574 308.45594418 -72.06149362 308.44873933 -75.07629395 308.44773674 C-76.51799246 308.44353808 -77.95969196 308.43111769 -79.40124512 308.41021919 C-81.41836125 308.38329411 -83.43585106 308.39123874 -85.453125 308.40063477 C-86.59942383 308.39556412 -87.74572266 308.39049347 -88.92675781 308.38526917 C-93.09849884 309.21972922 -94.38391751 310.66808687 -97 314 C-97.49350319 317.01022095 -97.67980421 319.45382229 -97.63923645 322.45979309 C-97.64759213 323.30936055 -97.6559478 324.15892802 -97.66455668 325.03423995 C-97.68649647 327.87977099 -97.67287672 330.72401266 -97.65942383 333.56958008 C-97.66787594 335.6097105 -97.67851954 337.64983284 -97.69119263 339.68994141 C-97.71937949 345.22883706 -97.71686009 350.76734599 -97.70889878 356.30629182 C-97.70577747 362.09460831 -97.73079712 367.88280083 -97.75285339 373.67106628 C-97.7903339 384.63216376 -97.80244377 395.59313716 -97.8054778 406.55429238 C-97.81016427 419.03307001 -97.84307442 431.511723 -97.87837565 443.99044573 C-97.95036003 469.66028205 -97.98683491 495.33007091 -98 521 C-116.13356426 521.09472659 -116.13356426 521.09472659 -125.0625 520.5 C-125.84431641 520.45230469 -126.62613281 520.40460937 -127.43164062 520.35546875 C-129.28804832 520.24157871 -131.1440786 520.12155743 -133 520 C-133.00054477 519.3397775 -133.00108953 518.679555 -133.00165081 517.99932575 C-133.01661964 501.93288869 -133.05907022 485.86679468 -133.13209057 469.80052662 C-133.16674043 462.03096695 -133.19209606 454.26158469 -133.19555664 446.49194336 C-133.19859657 439.71971413 -133.21909051 432.94780087 -133.26052457 426.17569369 C-133.28185419 422.58997551 -133.29445573 419.00470651 -133.28615379 415.41892433 C-133.27721159 411.41531459 -133.30723758 407.41290476 -133.34057617 403.40942383 C-133.33195053 402.22115494 -133.32332489 401.03288605 -133.31443787 399.80860901 C-133.2136651 393.22456361 -133.2136651 393.22456361 -136.41621399 387.78691101 C-140.28107954 385.11402294 -142.24386054 384.86796982 -146.9309082 384.83886719 C-148.17592606 384.82925964 -149.42094391 384.8196521 -150.70368958 384.80975342 C-152.06938494 384.8049051 -153.43508243 384.80062636 -154.80078125 384.796875 C-156.19842023 384.79112276 -157.59605919 384.78536504 -158.99369812 384.77960205 C-161.92671069 384.76909099 -164.85969585 384.76324932 -167.79272461 384.75976562 C-171.54545153 384.7542869 -175.29781451 384.73027307 -179.05042744 384.70179367 C-181.9389704 384.68313876 -184.82742629 384.67796014 -187.7160244 384.67642975 C-189.09908216 384.67340806 -190.48213857 384.66539582 -191.8651371 384.65224457 C-193.80365408 384.63512982 -195.74232122 384.63891698 -197.6809082 384.64355469 C-198.78296097 384.63990906 -199.88501373 384.63626343 -201.02046204 384.63250732 C-204.42578804 385.05251619 -206.26450457 385.95735799 -209 388 C-211.18865403 391.28298104 -211.25535855 392.2582676 -211.2784729 396.06828308 C-211.28963638 397.11576218 -211.30079987 398.16324127 -211.31230164 399.24246216 C-211.31554192 400.96552078 -211.31554192 400.96552078 -211.31884766 402.72338867 C-211.32889328 403.9332695 -211.3389389 405.14315033 -211.34928894 406.38969421 C-211.37490505 409.70763003 -211.3917454 413.02539437 -211.40471697 416.34338927 C-211.42033685 419.81078839 -211.44713069 423.27810055 -211.4727478 426.74543762 C-211.5195559 433.31142538 -211.55629013 439.87742945 -211.58942068 446.44349891 C-211.62762776 453.91869153 -211.67704159 461.39379685 -211.72740483 468.86891592 C-211.83075487 484.24588087 -211.92000523 499.62289474 -212 515 C-214.52646827 515.01403403 -217.0528569 515.02420549 -219.5793457 515.03222656 C-220.28607674 515.03654694 -220.99280777 515.04086731 -221.7209549 515.0453186 C-228.26587096 515.06085103 -234.68911591 514.52560571 -241.1875 513.75 C-242.34386963 513.61432617 -243.50023926 513.47865234 -244.69165039 513.33886719 C-275.90680044 509.5270523 -305.76475455 501.01903995 -330 480 C-330.76231934 479.34281982 -330.76231934 479.34281982 -331.54003906 478.67236328 C-347.40848981 464.89291121 -359.02323823 449.20616747 -368.97607422 430.83007812 C-369.77479835 429.40250633 -370.62670207 428.00464965 -371.49829102 426.62036133 C-373.02304388 423.95979029 -374.01186429 421.45108689 -374.97265625 418.54296875 C-375.31490234 417.51236328 -375.65714844 416.48175781 -376.00976562 415.41992188 C-376.35716797 414.35322266 -376.70457031 413.28652344 -377.0625 412.1875 C-377.41376953 411.13240234 -377.76503906 410.07730469 -378.12695312 408.99023438 C-388.1722506 378.512536 -389.75086287 342.44715131 -383 311 C-382.74476563 309.76378906 -382.48953125 308.52757812 -382.2265625 307.25390625 C-371.72624235 263.27779479 -344.45729593 224.24111462 -314.1953125 191.40625 C-312.32563637 189.35692527 -310.49889373 187.28136076 -308.6796875 185.1875 C-305.20595582 181.2074717 -301.62594371 177.34118684 -298 173.5 C-297.35699951 172.81566895 -296.71399902 172.13133789 -296.05151367 171.42626953 C-292.7465418 167.90958985 -289.43330894 164.40090278 -286.11328125 160.8984375 C-268.03280556 141.7911351 -252.81547003 121.69643862 -238.625 99.53662109 C-213.19786465 59.84492393 -213.19786465 59.84492393 -200 45 C-199.40058594 44.29101562 -198.80117188 43.58203125 -198.18359375 42.8515625 C-188.88425393 31.8716191 -178.5200247 22.56269233 -167 14 C-166.41959961 13.56413574 -165.83919922 13.12827148 -165.24121094 12.67919922 C-152.98634615 3.51370989 -140.57607826 -4.04581849 -126 -9 C-124.81277344 -9.42023438 -123.62554688 -9.84046875 -122.40234375 -10.2734375 C-80.92184623 -24.50115151 -38.46390606 -20.33010328 0 0 Z " fill="#FBF7F4" transform="translate(701,490)"/>
<path d="M0 0 C28.6720128 23.62472061 45.69189004 56.93619824 52.640625 93.17578125 C52.86492187 94.29581543 52.86492187 94.29581543 53.09375 95.43847656 C61.68930369 139.80561254 53.67333423 189.95495137 28.3203125 227.7421875 C26.19606335 230.66207836 23.98463075 233.42983224 21.640625 236.17578125 C21.22345215 236.67368164 20.8062793 237.17158203 20.37646484 237.68457031 C6.48919605 254.13936305 -13.13400326 267.52652072 -35.09716797 269.41064453 C-57.0218185 270.70159902 -75.63806666 266.00175795 -92.765625 251.515625 C-102.96631352 242.31349786 -111.36988025 233.05587605 -118.359375 221.17578125 C-118.75108887 220.510625 -119.14280273 219.84546875 -119.54638672 219.16015625 C-125.42824338 208.99242713 -129.83789415 198.48955201 -133.61083984 187.37695312 C-134.10262259 185.93079747 -134.60779474 184.48911308 -135.12744141 183.05273438 C-137.36977528 176.71164945 -138.70493942 170.27040292 -139.984375 163.67578125 C-140.2009375 162.59941406 -140.4175 161.52304687 -140.640625 160.4140625 C-142.54409823 150.76744816 -143.51733694 141.47991201 -143.5625 131.6484375 C-143.56820007 130.66064804 -143.57390015 129.67285858 -143.57977295 128.65513611 C-143.5891708 126.57177787 -143.59573603 124.48840513 -143.59960938 122.4050293 C-143.60925188 119.27820584 -143.64029997 116.15205862 -143.671875 113.02539062 C-143.76371775 96.04450828 -141.87916059 80.46483711 -136.734375 64.23828125 C-136.38810059 63.13637451 -136.04182617 62.03446777 -135.68505859 60.89916992 C-126.1361794 31.46426915 -108.95879477 4.42809218 -81.359375 -10.82421875 C-78.40696391 -12.30923746 -75.44200988 -13.63520244 -72.359375 -14.82421875 C-71.34875 -15.21609375 -70.338125 -15.60796875 -69.296875 -16.01171875 C-44.90115161 -22.75947203 -19.55382307 -15.07517797 0 0 Z " fill="#FBF7F4" transform="translate(548.359375,165.82421875)"/>
<path d="M0 0 C2.70951981 2.50022251 5.33334086 5.07952769 7.94091797 7.68530273 C9.03533203 8.74491211 9.03533203 8.74491211 10.15185547 9.82592773 C28.48448162 28.8319973 38.33994338 57.21098013 42.94091797 82.68530273 C43.07771973 83.3962207 43.21452148 84.10713867 43.35546875 84.83959961 C52.15380922 131.53924664 43.02198222 187.08154601 16.06323242 226.75708008 C2.62830465 245.50654867 -13.64721032 260.04773401 -36.05908203 266.68530273 C-37.30044922 267.05461914 -37.30044922 267.05461914 -38.56689453 267.43139648 C-56.82433439 271.91839442 -77.83560116 268.10585571 -93.82080078 258.64233398 C-108.28552475 249.54201096 -120.06339001 237.15297808 -129.05908203 222.68530273 C-129.46723145 222.02949219 -129.87538086 221.37368164 -130.29589844 220.69799805 C-139.14148894 206.08534484 -144.34565377 190.00224321 -149.05908203 173.68530273 C-149.33042969 172.75476074 -149.60177734 171.82421875 -149.88134766 170.86547852 C-153.51933753 157.64317871 -153.43201162 144.11115031 -153.49658203 130.49780273 C-153.50320862 129.61064575 -153.50983521 128.72348877 -153.5166626 127.80944824 C-153.58651463 111.99802099 -152.04540887 96.4675137 -147.80908203 81.18530273 C-147.59783691 80.41234863 -147.3865918 79.63939453 -147.16894531 78.84301758 C-137.20162855 43.44580579 -117.98661809 9.21525956 -85.05908203 -9.31469727 C-81.46032325 -11.20564813 -77.8523268 -12.85575697 -74.05908203 -14.31469727 C-72.87378906 -14.77295898 -72.87378906 -14.77295898 -71.66455078 -15.24047852 C-47.58640861 -23.89548362 -18.78620684 -16.73273034 0 0 Z " fill="#FBF7F4" transform="translate(804.05908203125,166.314697265625)"/>
<path d="M0 0 C16.9276768 13.36584895 29.51363569 30.12959311 39.3125 49.25 C39.66296387 49.92643555 40.01342773 50.60287109 40.37451172 51.29980469 C58.55646258 86.79191163 64.96332549 132.49282948 54.3125 171.25 C54.08755859 172.09933105 53.86261719 172.94866211 53.63085938 173.82373047 C48.09089244 194.46125193 40.24776602 211.60353084 25.3125 227.25 C24.77367187 227.86359375 24.23484375 228.4771875 23.6796875 229.109375 C11.7064992 242.22573203 -8.08948453 251.24439912 -25.6875 252.25 C-26.75355469 252.31445312 -27.81960938 252.37890625 -28.91796875 252.4453125 C-49.61712625 253.09965889 -68.26488198 246.06444759 -83.6875 232.25 C-84.49316406 231.57453125 -85.29882812 230.8990625 -86.12890625 230.203125 C-103.82533554 215.02684448 -114.9561919 195.59377028 -123.6875 174.25 C-124.16960937 173.10917969 -124.65171875 171.96835937 -125.1484375 170.79296875 C-128.53057075 162.48112007 -130.81422889 154.00530803 -132.6875 145.25 C-132.964729 144.01636719 -132.964729 144.01636719 -133.24755859 142.7578125 C-141.72115399 104.07057592 -138.67269384 58.54362337 -117.18847656 24.40307617 C-104.27579394 4.75936793 -86.12739489 -11.67642731 -62.76171875 -17.12109375 C-39.59586327 -21.15517758 -18.43364794 -13.94329415 0 0 Z " fill="#FBF7F4" transform="translate(351.6875,365.75)"/>
<path d="M0 0 C4.26079282 3.3979656 8.14683279 7.15231382 12 11 C13.09634766 12.07894531 13.09634766 12.07894531 14.21484375 13.1796875 C29.62347698 29.35112435 37.86790371 52.45240181 42 74 C42.13680176 74.70688965 42.27360352 75.4137793 42.41455078 76.14208984 C50.17603492 117.48708709 42.58348416 163.31010037 22 200 C21.62504395 200.67015137 21.25008789 201.34030273 20.86376953 202.03076172 C15.40252712 211.62262313 9.16021635 219.77533729 1.38134766 227.59521484 C0.13400212 228.86372425 -1.07066353 230.17386002 -2.26953125 231.48828125 C-16.82267447 247.12143509 -37.74244906 255.65418997 -58.91821289 256.4753418 C-81.14250572 256.71683223 -101.31599488 246.46775501 -116.96875 231.15234375 C-141.36576035 206.25042496 -150.33261309 168.77040084 -150.375 134.875 C-150.27011128 125.42572149 -149.73578014 116.30097221 -148 107 C-147.76329238 105.51188231 -147.52768678 104.02358905 -147.29296875 102.53515625 C-140.77704977 63.74562772 -120.23608551 24.40523965 -87.78662109 1.22705078 C-59.98850804 -17.86468414 -28.2228789 -19.67833758 0 0 Z " fill="#FBF7F4" transform="translate(994,362)"/>
<path d="M0 0 C2.70915156 2.70915156 2.87423191 5.54689951 3.5 9.1875 C3.62818115 9.91308105 3.7563623 10.63866211 3.88842773 11.38623047 C4.27043268 13.58905373 4.63715922 15.79394842 5 18 C5.18691406 19.10214844 5.37382813 20.20429687 5.56640625 21.33984375 C11.73042275 62.1582522 11.54650226 106.14990994 6 147 C5.84727631 148.12637878 5.84727631 148.12637878 5.69146729 149.2755127 C-0.97983083 197.89336337 -13.76770396 244.62367009 -35 289 C-35.37946777 289.80131348 -35.75893555 290.60262695 -36.14990234 291.42822266 C-45.22180527 310.48110486 -55.89722677 328.71284523 -68 346 C-68.49999512 346.71639648 -68.99999023 347.43279297 -69.51513672 348.17089844 C-75.80138994 357.13487764 -82.28144455 365.80902685 -89.46875 374.0703125 C-91.8001822 376.76872939 -94.0307139 379.52183053 -96.25 382.3125 C-108.41522363 397.23662256 -122.28864353 411.57415784 -137 424 C-138.485 425.30130859 -138.485 425.30130859 -140 426.62890625 C-164.4646069 448.02030271 -191.42477329 466.54592218 -220 482 C-220.79728516 482.43747559 -221.59457031 482.87495117 -222.41601562 483.32568359 C-243.41100768 494.80906613 -265.5658666 505.32789942 -288.34375 512.79296875 C-291.42538567 513.8103036 -294.44609999 514.92640697 -297.47802734 516.08056641 C-317.80109658 523.67196456 -339.64729084 528.78922176 -360.97583008 532.6105957 C-363.09908912 533.0190625 -365.19309062 533.50914638 -367.296875 534.0078125 C-372.71411893 535.22772399 -378.17231434 535.83617423 -383.6875 536.4375 C-384.82195557 536.56165283 -385.95641113 536.68580566 -387.12524414 536.8137207 C-389.53707319 537.07621592 -391.94910687 537.33683688 -394.36132812 537.59570312 C-397.86539386 537.98504376 -401.36160924 538.4174046 -404.859375 538.859375 C-469.85632963 546.69350515 -538.84213792 538.14254775 -601 518 C-602.12390137 517.63680664 -603.24780273 517.27361328 -604.40576172 516.89941406 C-666.91791071 496.47860869 -726.2123319 464.52133227 -776.14453125 421.55200195 C-777.50757175 420.41189032 -778.89405858 419.29966046 -780.29296875 418.20385742 C-788.32588761 411.8566843 -795.49134439 404.78062657 -802.68994141 397.51586914 C-804.75497324 395.43248256 -806.82799396 393.35730835 -808.90234375 391.28320312 C-810.24266116 389.93797176 -811.58252091 388.59228423 -812.921875 387.24609375 C-813.52932556 386.63753036 -814.13677612 386.02896698 -814.76263428 385.40196228 C-819.02875507 381.08928528 -823.04550026 376.59875481 -827 372 C-827.68212807 371.21724953 -827.68212807 371.21724953 -828.3780365 370.41868591 C-838.96415069 358.26300626 -848.47025672 345.45257605 -857.4375 332.0625 C-858.01669189 331.19882812 -858.59588379 330.33515625 -859.19262695 329.4453125 C-862.73267522 324.0984236 -865.97765991 318.6556661 -869 313 C-868.34 313 -867.68 313 -867 313 C-865.72827148 314.29077148 -865.72827148 314.29077148 -864.18359375 316.18359375 C-859.35360809 321.86085761 -854.0796881 327.0700416 -848.80297852 332.32739258 C-847.066064 334.058947 -845.33456111 335.79578359 -843.60351562 337.53320312 C-838.43168075 342.70814304 -833.2545747 347.81107822 -827.68383789 352.5612793 C-825.11354096 354.75741672 -822.66126976 357.07076131 -820.1875 359.375 C-815.54577236 363.66306519 -810.76875713 367.72485058 -805.84375 371.6875 C-803.26588706 373.78378415 -800.7355165 375.92263257 -798.21386719 378.08544922 C-791.6805476 383.68184982 -784.95602171 388.93491686 -778 394 C-777.32807617 394.49258301 -776.65615234 394.98516602 -775.96386719 395.49267578 C-729.42617279 429.59196278 -679.21654533 457.06468207 -624.4375 475.375 C-623.69853485 475.62243958 -622.9595697 475.86987915 -622.19821167 476.12481689 C-606.89927439 481.22183174 -591.44038186 485.65431159 -575.6875 489.125 C-574.54522949 489.37797852 -573.40295898 489.63095703 -572.22607422 489.89160156 C-562.58102537 491.97520097 -552.92121619 493.47926612 -543.13623047 494.71630859 C-540.30697379 495.09203388 -537.49999587 495.57835156 -534.6875 496.0625 C-449.31330639 509.28172998 -358.04678521 494.76875092 -228 435 C-227.09668945 434.46375 -226.19337891 433.9275 -225.26269531 433.375 C-212.69576594 425.87719775 -200.70040924 417.7846523 -189 409 C-188.39720215 408.55027832 -187.7944043 408.10055664 -187.17333984 407.63720703 C-178.84375715 401.40712267 -170.87295153 394.79173285 -163 388 C-162.26007812 387.36191406 -161.52015625 386.72382812 -160.7578125 386.06640625 C-158.82838101 384.38880818 -156.91395363 382.69521607 -155 381 C-154.32710937 380.41992188 -153.65421875 379.83984375 -152.9609375 379.2421875 C-146.84049573 373.87891379 -141.07449953 368.18128107 -135.3125 362.4375 C-134.50449951 361.6340918 -133.69649902 360.83068359 -132.86401367 360.00292969 C-128.03576479 355.16227651 -123.44759575 350.19030624 -119 345 C-117.93135393 343.78499062 -116.86106455 342.57142443 -115.7890625 341.359375 C-109.63274176 334.354931 -103.70473185 327.28129381 -98.24121094 319.71386719 C-96.82013533 317.75164241 -95.38264315 315.80190962 -93.9453125 313.8515625 C-49.73114675 253.59002319 -20.63187478 184.77824537 -9 111 C-8.71068604 109.22351074 -8.71068604 109.22351074 -8.41552734 107.41113281 C-2.66420209 71.82010693 -1.27041821 35.97541538 0 0 Z " fill="#CD9686" transform="translate(1088,592)"/>
<path d="M0 0 C1.30515564 -0.00960754 2.61031128 -0.01921509 3.95501709 -0.02911377 C5.39221015 -0.03396235 6.82940522 -0.03824103 8.26660156 -0.04199219 C9.73293053 -0.04774242 11.19925947 -0.05350016 12.66558838 -0.05926514 C15.74581249 -0.06978692 18.82601043 -0.07562126 21.90625 -0.07910156 C25.84844779 -0.08457627 29.79029841 -0.10857701 33.73238754 -0.13707352 C36.76419065 -0.15572631 39.79591078 -0.16090698 42.82776642 -0.16243744 C44.28060038 -0.16546064 45.73343299 -0.17347802 47.18621063 -0.18662262 C49.22302898 -0.20372961 51.2599901 -0.19995134 53.296875 -0.1953125 C55.03442047 -0.20078094 55.03442047 -0.20078094 56.80706787 -0.20635986 C60.28588144 0.20601854 62.12386489 1.06564297 64.90722656 3.16113281 C67.4342423 6.95165642 67.17999023 9.95303238 67.1477356 14.342453 C67.14944445 15.18622806 67.1511533 16.03000312 67.15291393 16.89934713 C67.15621769 19.73693857 67.14519057 22.57429544 67.13427734 25.41186523 C67.13371342 27.44183853 67.13402942 29.47181223 67.13516235 31.50178528 C67.13573761 37.02212826 67.12395538 42.54238482 67.11001444 48.06270766 C67.09753581 53.82828445 67.09633885 59.59386309 67.09396362 65.35945129 C67.08774041 76.28165487 67.07131822 87.20381854 67.05126464 98.12600452 C67.0289318 110.55872194 67.0179188 122.99144124 67.00787377 135.42417371 C66.98695272 161.00318223 66.95176041 186.58215529 66.90722656 212.16113281 C70.20722656 212.16113281 73.50722656 212.16113281 76.90722656 212.16113281 C76.90722656 212.49113281 76.90722656 212.82113281 76.90722656 213.16113281 C47.53722656 213.16113281 18.16722656 213.16113281 -12.09277344 213.16113281 C-12.2055827 186.25803296 -12.29771236 159.3551242 -12.3518343 132.45184803 C-12.37763048 119.9605698 -12.41280824 107.4694488 -12.4699707 94.97827148 C-12.51976211 84.09264561 -12.55205415 73.20713359 -12.56321591 62.32139701 C-12.56974183 56.55590104 -12.58510937 50.79073082 -12.62142372 45.02533913 C-12.65531558 39.60069453 -12.66584005 34.17651044 -12.65831184 28.75177002 C-12.65968943 26.7591114 -12.66966224 24.76643766 -12.68880081 22.77387047 C-12.71363251 20.05565377 -12.70771501 17.3391819 -12.69404602 14.6209259 C-12.70861023 13.83006381 -12.72317443 13.03920172 -12.73817998 12.22437412 C-12.68232402 8.12284491 -12.2845087 6.39091623 -9.6176939 3.19489574 C-8.36785827 2.18818309 -8.36785827 2.18818309 -7.09277344 1.16113281 C-5.27531739 -0.65632324 -2.44474757 0.01445032 0 0 Z " fill="#C38B7A" transform="translate(615.0927734375,797.8388671875)"/>
<path d="M0 0 C5.80066391 3.21043034 10.26002278 7.72930569 12.75 13.9375 C13.67870675 21.24006785 13.43514204 27.72523503 9.375 34 C5.62659998 38.46924618 0.49019358 42.57078724 -5.25 43.9375 C-9.62264164 44.2062504 -13.77003515 44.45376681 -17.9375 43 C-20.25230071 42.70367767 -20.25230071 42.70367767 -21.78515625 44.04296875 C-26.23893296 48.31413047 -30.00158844 53.2476235 -33.86328125 58.046875 C-36.24370482 60.92987572 -38.71679782 63.68828833 -41.25 66.4375 C-45.36378909 70.9073512 -49.22087297 75.52794893 -53.03515625 80.25390625 C-55.20632827 82.88458557 -57.45241357 85.41692424 -59.75 87.9375 C-63.70588713 92.27932734 -67.44346011 96.75795324 -71.09375 101.359375 C-73.25 103.9375 -73.25 103.9375 -75.40625 105.953125 C-78.53528742 108.90832701 -80.20488448 110.57535821 -80.3515625 115.00390625 C-80.11651305 117.25776934 -79.84671388 119.50826915 -79.54296875 121.75390625 C-78.96497836 128.03473513 -81.14214654 132.845076 -84.9375 137.75 C-90.19287899 143.26173894 -95.14497586 145.16590645 -102.75 145.5 C-108.74898473 145.29864519 -112.8511223 144.0801324 -117.25 139.9375 C-118.01642691 138.82362622 -118.76724207 137.69880578 -119.5 136.5625 C-121.91235672 133.72691321 -121.91235672 133.72691321 -124.66015625 133.67578125 C-131.19013178 134.12400299 -137.62116975 135.51047384 -144.03540039 136.77685547 C-149.50441202 137.84717562 -154.97468137 138.58986993 -160.50830078 139.23364258 C-165.57828825 139.82918688 -170.58395629 140.63580132 -175.6015625 141.5703125 C-178.51275546 141.97392922 -181.31462508 141.99775696 -184.25 141.9375 C-184.5903125 143.236875 -184.5903125 143.236875 -184.9375 144.5625 C-187.14787579 150.24632345 -190.00062108 153.58204631 -195.375 156.3125 C-201.39642012 158.73514148 -207.98082709 158.93435832 -214.18359375 157.04296875 C-217.67271997 156.92296059 -217.97140735 157.17728375 -220.3984375 159.4375 C-221.49129741 160.58794052 -222.56610416 161.75572347 -223.625 162.9375 C-224.7754681 164.15672053 -225.92780049 165.37418471 -227.08203125 166.58984375 C-227.63068848 167.17620605 -228.1793457 167.76256836 -228.74462891 168.36669922 C-230.50487956 170.20345768 -232.36166605 171.86817035 -234.3125 173.5 C-237.81482179 176.46919881 -241.02601619 179.67367703 -244.25 182.9375 C-247.47398381 186.20132297 -250.68517821 189.40580119 -254.1875 192.375 C-258.54823338 196.07888651 -262.52804885 200.15098115 -266.51416016 204.24975586 C-269.3803291 207.17459895 -272.14607392 209.65293866 -275.5625 211.9375 C-277.24512059 213.15536388 -277.24512059 213.15536388 -278.25 214.9375 C-278.51936033 218.20514995 -278.3667916 221.34066528 -278.19140625 224.61328125 C-278.29870731 230.70082809 -280.92864606 235.34082268 -284.9296875 239.81640625 C-290.75409294 245.18780238 -296.62367447 246.47579236 -304.43359375 246.31640625 C-310.39993465 245.51372238 -315.18507487 242.42250474 -319.1875 238 C-323.67560345 231.33584639 -324.04832143 224.8066684 -323.25 216.9375 C-321.45191597 209.80550229 -316.26777991 205.76095132 -310.25 201.9375 C-303.18838049 199.58362683 -295.16485305 200.42300798 -288.25 202.9375 C-287.63125 202.30134766 -287.63125 202.30134766 -287 201.65234375 C-286.4225 201.06582031 -285.845 200.47929688 -285.25 199.875 C-284.4146875 199.02228516 -284.4146875 199.02228516 -283.5625 198.15234375 C-281.58715936 196.26042121 -279.57139743 194.47550369 -277.5 192.69140625 C-273.21315994 188.96473314 -269.22580112 184.99095349 -265.25 180.9375 C-260.70014051 176.29877607 -256.07985715 171.86193506 -251.15625 167.62109375 C-248.21772653 165.02579945 -245.48818979 162.24088479 -242.75 159.4375 C-238.54625731 155.16902797 -234.30006847 151.08314376 -229.640625 147.3046875 C-227.97694966 145.87634653 -227.97694966 145.87634653 -227.25 142.9375 C-227.58 141.9475 -227.91 140.9575 -228.25 139.9375 C-228.9889536 133.11732173 -228.44907844 127.50294523 -224.25 121.9375 C-218.71447187 116.21212524 -214.76570888 112.82483652 -206.625 112.625 C-200.73367583 112.71027852 -196.0866506 113.43923554 -191.25 116.9375 C-184.25 124.23564815 -184.25 124.23564815 -184.25 127.9375 C-183.50621094 127.75574219 -182.76242187 127.57398438 -181.99609375 127.38671875 C-174.43647557 125.64631079 -166.94342213 124.44897407 -159.25 123.5 C-156.26956456 123.11720086 -153.28985751 122.72934697 -150.31054688 122.33789062 C-148.24490532 122.06765673 -146.17846427 121.80347468 -144.11132812 121.54492188 C-141.06742264 121.15136258 -138.03491971 120.70720279 -135 120.25 C-134.06542969 120.13793213 -133.13085938 120.02586426 -132.16796875 119.91040039 C-129.6142204 119.49912702 -127.56076302 119.10325088 -125.25 117.9375 C-123.93835192 115.94417006 -123.32734274 114.22986629 -122.76489258 111.91748047 C-121.61020364 107.47721147 -118.68358222 104.88903706 -115.01953125 102.45703125 C-108.10896868 98.63211522 -102.4804142 97.77620983 -94.86328125 99.8671875 C-91.42786255 100.28579466 -91.42786255 100.28579466 -89.67993164 98.85400391 C-88.03308553 97.12756246 -86.57778991 95.33025152 -85.125 93.4375 C-83.99288175 92.04630974 -82.86004858 90.65570103 -81.7265625 89.265625 C-81.15325195 88.54697266 -80.57994141 87.82832031 -79.98925781 87.08789062 C-77.25341454 83.70533763 -74.37211885 80.45421271 -71.5 77.1875 C-67.77860722 72.91211526 -64.12593896 68.5963946 -60.5625 64.1875 C-56.79194526 59.52772851 -52.79857731 55.11853726 -48.73828125 50.7109375 C-45.46856147 47.06650886 -42.40303115 43.27620707 -39.35546875 39.4453125 C-37.25 36.9375 -37.25 36.9375 -34.49609375 34.640625 C-31.47889459 31.0094914 -31.78855067 28.03805854 -32.125 23.5625 C-32.60943706 16.15192233 -31.54062688 11.78575316 -27.6875 5.3125 C-19.76519808 -2.40666597 -10.08868373 -4.54594881 0 0 Z " fill="#C48D7D" transform="translate(757.25,612.0625)"/>
<path d="M0 0 C3.85498863 0.00514262 7.70996197 -0.00147339 11.56494834 -0.00648667 C18.29994615 -0.01366297 25.03491183 -0.01352015 31.76991107 -0.00839235 C41.78555458 -0.00078771 51.80117128 -0.00471533 61.81681465 -0.01080896 C79.71084609 -0.0213116 97.6048632 -0.02043918 115.49889599 -0.01465113 C131.1586977 -0.00961093 146.81849418 -0.00831085 162.47829653 -0.01069642 C163.51889699 -0.01084919 164.55949744 -0.01100196 165.63163125 -0.01115936 C169.85625331 -0.01178209 174.08087536 -0.01241889 178.30549741 -0.01307889 C217.89868537 -0.0191906 257.49186424 -0.01365995 297.08505079 -0.0028851 C332.22593372 0.00660541 367.36680216 0.00575613 402.50768496 -0.00380708 C442.03058017 -0.01452697 481.55346735 -0.01875708 521.07636382 -0.01258255 C525.29308471 -0.01194116 529.50980561 -0.01131548 533.72652651 -0.01069642 C534.76471566 -0.01053827 535.80290481 -0.01038011 536.87255424 -0.01021717 C552.5187251 -0.00794661 568.16489015 -0.01059458 583.81106021 -0.01565553 C601.60961104 -0.02138415 619.40814536 -0.01992287 637.20669414 -0.00909404 C647.15578977 -0.00323983 657.10484961 -0.00281148 667.05394428 -0.01038639 C673.71303518 -0.0148953 680.37209759 -0.01203676 687.0311843 -0.00337685 C690.81613947 0.00134638 694.60102393 0.00308003 698.38597669 -0.00418882 C739.96624828 -0.07811653 739.96624828 -0.07811653 759.78991152 4.81943511 C760.85749697 5.07628081 761.92508242 5.33312651 763.02501895 5.59775542 C788.61589677 11.97449875 812.58844538 21.51639702 835.10241152 35.25693511 C835.67507754 35.60578765 836.24774355 35.95464019 836.83776309 36.31406401 C845.70686122 41.7552435 853.95719017 47.79263842 862.10241152 54.25693511 C863.10401309 55.02908355 864.10561465 55.80123198 865.13756777 56.59677886 C866.05409121 57.30963042 866.97061465 58.02248198 867.91491152 58.75693511 C869.13114199 59.70052886 869.13114199 59.70052886 870.37194277 60.66318511 C870.94299746 61.18912261 871.51405215 61.71506011 872.10241152 62.25693511 C872.10241152 62.91693511 872.10241152 63.57693511 872.10241152 64.25693511 C872.69119082 64.52119292 873.27997012 64.78545073 873.88659121 65.05771636 C876.18313737 66.30062455 877.71074318 67.60699992 879.55553652 69.44443511 C880.17428652 70.06060698 880.79303652 70.67677886 881.43053652 71.31162261 C882.38186465 72.2745523 882.38186465 72.2745523 883.35241152 73.25693511 C884.00209902 73.89888823 884.65178652 74.54084136 885.32116152 75.20224761 C885.93475527 75.81841948 886.54834902 76.43459136 887.18053652 77.06943511 C887.74160098 77.63275542 888.30266543 78.19607573 888.88073184 78.77646636 C890.10241152 80.25693511 890.10241152 80.25693511 890.10241152 82.25693511 C891.09241152 82.58693511 892.08241152 82.91693511 893.10241152 83.25693511 C895.00131036 85.4718339 896.78366833 87.68408601 898.53991152 90.00693511 C899.49682052 91.25182076 900.45384973 92.49661401 901.41100527 93.74131011 C901.87136172 94.34523589 902.33171816 94.94916167 902.8060248 95.57138823 C903.91151446 97.00873298 905.0451768 98.42433676 906.18444277 99.83506011 C915.69085184 111.8390797 924.21162047 125.1247008 930.10241152 139.25693511 C929.11241152 139.25693511 928.12241152 139.25693511 927.10241152 139.25693511 C926.47334902 138.09677886 925.84428652 136.93662261 925.19616152 135.74131011 C920.2098584 126.61216299 915.10400241 117.76428187 909.10241152 109.25693511 C908.47979434 108.35974761 907.85717715 107.46256011 907.21569277 106.53818511 C901.92970831 99.0756188 896.0771669 92.16749555 890.10241152 85.25693511 C889.47334902 84.51443511 888.84428652 83.77193511 888.19616152 83.00693511 C880.32337912 73.79726513 871.63845981 65.71142583 862.10241152 58.25693511 C861.46351992 57.75226714 860.82462832 57.24759917 860.16637637 56.72763823 C851.13193469 49.60510207 842.10270493 42.97464273 832.10241152 37.25693511 C831.42597598 36.86409331 830.74954043 36.47125151 830.05260684 36.06650542 C793.75392439 15.03105515 752.98511823 3.06201896 710.90176226 3.12550734 C709.62038431 3.12345471 708.33900637 3.12140208 707.01879878 3.11928724 C703.48084152 3.1137662 699.94290867 3.11438455 696.40494849 3.11606483 C692.54853171 3.1168001 688.69212157 3.11176325 684.83570768 3.10748981 C677.19531287 3.09993271 669.55492506 3.09771792 661.9145269 3.09716076 C652.75906587 3.09624484 643.60361126 3.08957056 634.448153 3.08281393 C612.3224872 3.06677471 590.19682211 3.06085295 568.07115155 3.05606518 C557.59822348 3.05372709 547.12529595 3.0501242 536.65236831 3.04636981 C500.78191242 3.03353595 464.91145684 3.02281678 429.04099871 3.01936721 C426.79040522 3.01914558 424.53981174 3.01892379 422.28921825 3.01870186 C420.03328137 3.01848122 417.7773445 3.01826073 415.52140762 3.01804041 C410.99583731 3.01759786 406.47026699 3.01715075 401.94469668 3.01670073 C400.8226233 3.01659134 399.70054992 3.01648195 398.54447431 3.01636925 C362.1735503 3.01273983 325.80264623 2.99682329 289.43172986 2.97351037 C250.95194298 2.94889094 212.4721675 2.93519338 173.99237253 2.93399929 C169.76478777 2.93382784 165.53720301 2.93361242 161.30961825 2.93336486 C159.74826457 2.9332812 159.74826457 2.9332812 158.15536838 2.93319586 C141.43492023 2.93204725 124.71449261 2.92104139 107.99405139 2.9064778 C91.17405829 2.89208132 74.35409141 2.88889357 57.53409384 2.89691778 C47.5543452 2.90135922 37.57468141 2.89757319 27.59494399 2.88167927 C20.91251769 2.87187475 14.23015035 2.87315929 7.54772449 2.8831155 C3.75087612 2.88846839 -0.0458102 2.88934626 -3.84264465 2.87660678 C-66.25476218 2.68071391 -123.1468438 21.42107175 -170.89758848 62.25693511 C-171.53946104 62.80454497 -172.18133359 63.35215484 -172.84265684 63.91635894 C-185.52121159 74.86143879 -196.94721968 86.79053494 -206.89758848 100.25693511 C-207.44157285 100.95560698 -207.98555723 101.65427886 -208.54602598 102.37412261 C-218.92658569 115.73694258 -227.00218516 130.3390796 -234.89758848 145.25693511 C-235.91140119 142.08410067 -235.95667087 141.40851072 -234.67493223 138.12021636 C-234.06778379 136.94845855 -233.46063535 135.77670073 -232.83508848 134.56943511 C-232.51435361 133.94802642 -232.19361875 133.32661773 -231.86316465 132.68637847 C-229.57616512 128.33311918 -227.04050566 124.2225253 -224.22180723 120.19052886 C-222.72368681 118.06746893 -222.72368681 118.06746893 -221.02258848 114.88193511 C-216.40426966 106.63357969 -210.21611181 99.27711492 -204.19446348 92.03037261 C-202.62396162 90.13401833 -201.07264325 88.22165617 -199.53821348 86.29599761 C-193.03588972 78.15718298 -193.03588972 78.15718298 -189.71008848 75.50693511 C-187.43567722 73.6874061 -185.98876289 72.23027813 -184.21008848 70.00693511 C-180.50096423 65.56172177 -176.06118205 62.12876329 -171.52942441 58.55625151 C-169.78440173 57.16681245 -168.06285756 55.75148419 -166.34290098 54.33115386 C-158.21645455 47.65467646 -149.91627462 41.67468207 -140.89758848 36.25693511 C-140.14799863 35.79818999 -139.39840879 35.33944487 -138.6261041 34.86679839 C-124.93216239 26.52669292 -110.87745132 19.95215453 -95.89758848 14.25693511 C-95.11351621 13.95561675 -94.32944395 13.65429839 -93.52161191 13.34384917 C-84.09807244 9.78328619 -74.45401197 7.28301785 -64.64758848 5.00693511 C-63.61400205 4.76040191 -62.58041562 4.5138687 -61.5155084 4.2598648 C-41.30711589 -0.20447491 -20.58815747 -0.03953872 0 0 Z " fill="#1C3D28" transform="translate(279.89758847653866,15.743064891546965)"/>
<path d="M0 0 C0.33 0 0.66 0 1 0 C1.31939834 1.89468335 1.62999579 3.79084994 1.9375 5.6875 C2.11152344 6.74324219 2.28554687 7.79898438 2.46484375 8.88671875 C3.8993617 18.99511512 4.1468017 29.15893533 4.13142776 39.35213852 C4.1334804 40.63774746 4.13553303 41.92335641 4.13764787 43.2479232 C4.14316216 46.79309139 4.14255183 50.33823519 4.14087028 53.88340628 C4.14013433 57.74939297 4.14517342 61.61537305 4.1494453 65.48135686 C4.15699851 73.13867977 4.15921699 80.7959957 4.15977435 88.45332195 C4.16069065 97.62989761 4.16736606 106.80646688 4.17412117 115.98303977 C4.19015628 138.1588172 4.19608165 160.33459393 4.20086992 182.51037612 C4.20320839 193.00778822 4.20681132 203.50519979 4.2105653 214.00261147 C4.22339867 249.95975196 4.23411798 285.91689215 4.2375679 321.87403488 C4.23778953 324.12982892 4.23801132 326.38562295 4.23823325 328.64141698 C4.23845389 330.90255218 4.23867437 333.16368737 4.2388947 335.42482257 C4.23933724 339.96078666 4.23978436 344.49675075 4.24023438 349.03271484 C4.24034377 350.15736426 4.24045316 351.28201368 4.24056586 352.44074339 C4.24419526 388.89499817 4.26011199 425.34923306 4.28342474 461.80348022 C4.30804636 500.37517288 4.32174182 538.94685418 4.32293582 577.51855493 C4.32310726 581.75653347 4.32332269 585.994512 4.32357025 590.23249054 C4.32362602 591.27594537 4.32368179 592.31940021 4.32373925 593.39447488 C4.32488766 610.15279373 4.33589173 626.91109207 4.35045731 643.669404 C4.36485659 660.52849959 4.36803996 677.38756903 4.36001733 694.24666908 C4.35557724 704.24843037 4.35935646 714.25010696 4.37525584 724.25185703 C4.38506507 730.95019726 4.38377142 737.64847869 4.37381961 744.34681849 C4.36847005 748.15191822 4.36757768 751.95685632 4.38032833 755.76194212 C4.43584741 773.38323976 3.62331989 790.5551386 1 808 C0.34 807.67 -0.32 807.34 -1 807 C-0.92928571 805.99223843 -0.85857142 804.98447686 -0.78571427 803.94617707 C0.17745424 788.94477978 0.14254182 773.94512533 0.12846755 758.92031655 C0.12590456 754.98536003 0.12920106 751.05040735 0.13171089 747.1154514 C0.13530491 740.23551599 0.13522394 733.35558845 0.13266373 726.47565269 C0.12886691 716.2446507 0.1308224 706.01365529 0.13387203 695.78265333 C0.1391275 677.50585928 0.13868549 659.22906874 0.13579312 640.95227437 C0.13327453 624.95827005 0.13262228 608.96426701 0.13381577 592.97026253 C0.13389215 591.90808015 0.13396854 590.84589778 0.13404724 589.75152806 C0.13435859 585.43946289 0.13467699 581.12739772 0.135007 576.81533255 C0.13806382 536.3912732 0.13529596 495.96721608 0.1299101 455.54315708 C0.1251644 419.65092188 0.12558967 383.75869024 0.13037109 347.86645508 C0.13572885 307.51336919 0.13784734 267.16028526 0.13475883 226.80719906 C0.13443813 222.50343994 0.13412529 218.19968083 0.13381577 213.89592171 C0.13373669 212.83627611 0.13365761 211.77663051 0.13357614 210.68487444 C0.13243999 194.70260433 0.13376646 178.72033564 0.13629532 162.73806572 C0.13915712 144.56127716 0.13843429 126.38449265 0.13301457 108.2077046 C0.13008334 98.04227936 0.12987932 87.87686288 0.13366075 77.71143788 C0.13591017 70.91314898 0.13449489 64.11486708 0.13015598 57.31657922 C0.1277875 53.44880044 0.12694227 49.58103902 0.13056196 45.71326082 C0.20488206 25.78972714 0.20488206 25.78972714 -0.73862671 5.89474153 C-0.85911099 4.26528482 -0.93517232 2.63261845 -1 1 C-0.67 0.67 -0.34 0.34 0 0 Z " fill="#34463A" transform="translate(1232,226)"/>
<path d="M0 0 C1.89257812 0.28027344 1.89257812 0.28027344 4 1 C5.34532124 3.75179345 6.44181914 6.38884609 7.5 9.25 C16.61621137 32.24194329 30.75022435 52.50707715 47 71 C47.56589844 71.67675781 48.13179687 72.35351562 48.71484375 73.05078125 C58.39542474 84.55416884 69.33727377 94.82658815 81.38720703 103.78857422 C82.89097568 104.91810798 84.36670003 106.08471241 85.83984375 107.25390625 C117.51231558 132.08547953 157.33793444 147.50929597 197 153 C198.80362888 153.25155902 198.80362888 153.25155902 200.6436947 153.50820005 C215.23960569 155.3656486 229.83917427 155.2945695 244.52746302 155.27947159 C248.38089798 155.27774607 252.23430731 155.28766292 256.08773118 155.29602563 C262.8239794 155.3090783 269.56020265 155.31487921 276.29646301 155.31578636 C286.31285329 155.31716881 296.32920671 155.32999072 306.34558457 155.3450741 C323.19899024 155.37013325 340.05239276 155.38603792 356.90581322 155.39665604 C373.58360658 155.40719367 390.26138805 155.42184257 406.93917274 155.44193649 C407.97762678 155.44318536 409.01608081 155.44443423 410.08600314 155.44572094 C415.36016669 155.45208503 420.63433014 155.45852213 425.90849356 155.46498732 C463.22829615 155.51060366 500.54810261 155.54707113 537.86791992 155.578125 C574.11499598 155.60830726 610.3620642 155.64265429 646.60913086 155.68261719 C647.7271738 155.68384819 648.84521673 155.68507919 649.99713976 155.6863475 C661.22537701 155.69871476 672.45361417 155.71116645 683.68185126 155.72367998 C706.55338798 155.7491677 729.4249253 155.77409205 752.29646301 155.79867554 C753.3479712 155.79980645 754.39947938 155.80093736 755.48285145 155.80210253 C825.65522518 155.87750916 895.82761179 155.93978473 966 156 C966.33 156.66 966.66 157.32 967 158 C895.82194753 158.0342928 824.64389407 158.06608987 753.46583557 158.08468628 C752.41170773 158.08496239 751.35757988 158.08523851 750.27150877 158.08552299 C727.36027257 158.09150936 704.44903628 158.09704964 681.53779986 158.10213066 C670.3014857 158.10462525 659.06517155 158.10721836 647.82885742 158.10986328 C646.15167058 158.11025556 646.15167058 158.11025556 644.44060117 158.11065576 C608.22500569 158.11917238 572.00941647 158.13419046 535.79382477 158.15259444 C498.56520676 158.17147877 461.3365922 158.18377533 424.10796948 158.18782998 C418.84487355 158.18840626 413.58177763 158.18905753 408.31868172 158.18975449 C406.76496352 158.18995676 406.76496352 158.18995676 405.17985708 158.19016311 C388.53294269 158.19252287 371.88603903 158.20178908 355.23912901 158.21366407 C338.48714657 158.22546568 321.73517471 158.22992918 304.98318826 158.22700275 C295.04107786 158.22548623 285.09900635 158.22949555 275.156903 158.24159509 C268.50041716 158.24913954 261.84395654 158.24929617 255.18746891 158.24366363 C251.4044295 158.24066757 247.6214632 158.24067572 243.83843189 158.24976636 C222.9926873 158.29690094 201.92167719 158.34123758 181.5 153.625 C180.50572998 153.40585938 179.51145996 153.18671875 178.48706055 152.9609375 C175.65283589 152.32758092 172.82565018 151.67045781 170 151 C169.24154785 150.82178711 168.4830957 150.64357422 167.70166016 150.45996094 C158.83380455 148.34096434 150.40869032 145.50000099 142 142 C141.19159668 141.66806641 140.38319336 141.33613281 139.55029297 140.99414062 C120.56242794 133.17336881 120.56242794 133.17336881 113.15625 128.375 C110.79362952 126.86840143 108.36315431 125.60048576 105.875 124.3125 C90.95443759 116.2393345 77.74057157 105.47420367 65.2890625 94.04296875 C62.96904299 91.92106808 62.96904299 91.92106808 60.2109375 89.86328125 C59.48132813 89.24839844 58.75171875 88.63351562 58 88 C58 87.34 58 86.68 58 86 C57.40574219 85.7421875 56.81148437 85.484375 56.19921875 85.21875 C53.80697497 83.89303053 52.55218361 82.59621136 50.8125 80.5 C48.24689505 77.45164909 45.60811656 74.52360802 42.875 71.625 C32.87559351 60.53164135 24.52981665 47.86209024 17 35 C16.35804687 33.95328125 15.71609375 32.9065625 15.0546875 31.828125 C8.97555779 21.67240242 4.48227409 10.9333683 0 0 Z " fill="#0F2916" transform="translate(36,1083)"/>
<path d="M0 0 C0.66 0 1.32 0 2 0 C2.03426215 74.90658347 2.0660634 149.81316789 2.08468628 224.71975708 C2.08496239 225.82753467 2.08523851 226.93531227 2.08552299 228.07665888 C2.09150812 252.14881709 2.09704858 276.22097537 2.10213066 300.29313379 C2.10462544 312.09727801 2.10721853 323.90142221 2.10986328 335.70556641 C2.1101248 336.88025124 2.11038632 338.05493608 2.11065576 339.26521743 C2.11918589 377.37366326 2.13421405 415.48210317 2.15259444 453.59054541 C2.17144079 492.73594485 2.18376651 531.88134102 2.18782998 571.02674493 C2.18840633 576.54955934 2.18905761 582.07237374 2.18975449 587.59518814 C2.18988933 588.68220957 2.19002418 589.769231 2.19016311 590.88919248 C2.19253104 608.42173575 2.20181925 625.95426893 2.21366407 643.48680808 C2.22541144 661.09202519 2.22994279 678.69723225 2.22700275 696.30245315 C2.22547595 706.77554136 2.22958723 717.24859292 2.24159509 727.72167455 C2.24905857 734.70529155 2.24935309 741.68888436 2.24366363 748.672503 C2.24062521 752.65960806 2.24085012 756.64664346 2.24976636 760.63374124 C2.25780113 764.25392041 2.2567972 767.87397494 2.24827995 771.49415197 C2.2461557 773.42410188 2.25394223 775.35405471 2.26201695 777.28398889 C2.25752237 778.4151494 2.25302778 779.54630991 2.24839699 780.711748 C2.24870895 781.69224221 2.24902092 782.67273641 2.24934233 783.68294256 C2 786 2 786 0 788 C-0.98927294 780.60103925 -1.14028387 773.35149988 -1.12584114 765.89233398 C-1.12729458 764.58459802 -1.12874802 763.27686205 -1.13024551 761.92949772 C-1.13413252 758.30373177 -1.13181327 754.67799252 -1.12846755 751.05222702 C-1.12592834 747.10606484 -1.12919177 743.15990672 -1.13171089 739.21374512 C-1.13532205 732.29889685 -1.13521332 725.38405639 -1.13266373 718.46920776 C-1.1288827 708.18661218 -1.13081424 697.90402319 -1.13387203 687.62142766 C-1.13913977 669.25717928 -1.13868058 650.89293439 -1.13579312 632.52868569 C-1.13327864 616.4579255 -1.13262036 600.38716659 -1.13381577 584.31640625 C-1.13389215 583.25084401 -1.13396854 582.18528177 -1.13404724 581.08742976 C-1.13435857 576.76208333 -1.13467697 572.4367369 -1.135007 568.11139047 C-1.13806675 527.52734361 -1.13529135 486.94329897 -1.1299101 446.35925245 C-1.12516442 410.29418795 -1.12558904 374.22912697 -1.13037109 338.1640625 C-1.13572446 297.65475409 -1.13784976 257.14544763 -1.13475883 216.63613892 C-1.13443811 212.31862386 -1.13412527 208.00110881 -1.13381577 203.68359375 C-1.13373669 202.62049319 -1.13365761 201.55739263 -1.13357614 200.4620769 C-1.13243814 184.40049865 -1.13376991 168.33892181 -1.13629532 152.27734375 C-1.13915217 134.01661245 -1.13844488 115.75588518 -1.13301457 97.49515438 C-1.13007493 87.27234332 -1.12989147 77.04954097 -1.13366075 66.82673013 C-1.13590006 60.00132241 -1.13451312 53.17592169 -1.13015598 46.35051501 C-1.12777347 42.45968899 -1.12697166 38.5688803 -1.13056196 34.67805481 C-1.13438909 30.48791073 -1.13049814 26.29780924 -1.12584114 22.10766602 C-1.12818231 20.89853578 -1.13052347 19.68940554 -1.13293558 18.44363499 C-1.11902256 12.21018656 -0.82629809 6.18004079 0 0 Z " fill="#264430" transform="translate(21,236)"/>
<path d="M0 0 C0.81646693 2.32050187 1.17991031 3.53421732 0.27832031 5.8684082 C-0.11774414 6.50609131 -0.51380859 7.14377441 -0.921875 7.80078125 C-1.3648291 8.52322021 -1.8077832 9.24565918 -2.26416016 9.98999023 C-2.7544873 10.75641846 -3.24481445 11.52284668 -3.75 12.3125 C-4.24935059 13.10922119 -4.74870117 13.90594238 -5.26318359 14.72680664 C-12.70823377 26.45468672 -21.11484275 37.3378113 -30 48 C-31.05380859 49.38832031 -31.05380859 49.38832031 -32.12890625 50.8046875 C-32.74636719 51.52914063 -33.36382813 52.25359375 -34 53 C-34.66 53 -35.32 53 -36 53 C-36.2371875 53.56203125 -36.474375 54.1240625 -36.71875 54.703125 C-38.28947697 57.51894042 -40.21471464 59.47955416 -42.5 61.75 C-43.2940625 62.54921875 -44.088125 63.3484375 -44.90625 64.171875 C-47 66 -47 66 -49 66 C-49.26167969 66.59554688 -49.52335937 67.19109375 -49.79296875 67.8046875 C-65.9062087 97.11096857 -121.64686281 116.32481593 -151.375 125.16796875 C-160.44760537 127.7595759 -169.6648395 129.6372509 -179 131 C-180.10294356 131.17008054 -181.20588712 131.34016108 -182.34225321 131.51539558 C-188.19794368 132.23673641 -194.05606127 132.12806763 -199.94728851 132.10743046 C-201.24981351 132.10689593 -202.55233851 132.1063614 -203.89433396 132.10581067 C-207.51009295 132.10418484 -211.12581492 132.09626837 -214.74156221 132.08732699 C-218.67499177 132.07871689 -222.60842613 132.07598338 -226.54186296 132.07250541 C-233.43565272 132.06560018 -240.32942876 132.05494196 -247.22320938 132.04183006 C-257.47401182 132.02235013 -267.72481627 132.00866356 -277.97562931 131.99616829 C-295.2190656 131.97498503 -312.46249184 131.94909708 -329.70591736 131.92053413 C-346.7807538 131.8922658 -363.85559133 131.86608465 -380.93043518 131.84269524 C-381.9918269 131.84124015 -383.05321861 131.83978506 -384.14677371 131.83828588 C-389.53697641 131.8309072 -394.92717915 131.82356585 -400.31738192 131.81623887 C-438.50293548 131.76426555 -476.68848079 131.70760617 -514.87402344 131.64819336 C-551.97232752 131.5904829 -589.07063378 131.53489356 -626.16894531 131.48217773 C-627.31233993 131.48055215 -628.45573455 131.47892657 -629.63377749 131.47725173 C-641.11614482 131.46092941 -652.59851221 131.44465023 -664.08087964 131.42840267 C-687.47209232 131.39530309 -710.86330458 131.36191554 -734.2545166 131.32835388 C-735.3300228 131.3268111 -736.40552899 131.32526832 -737.51362628 131.32367879 C-809.34242471 131.22060969 -881.17121318 131.11082762 -953 131 C-953 130.67 -953 130.34 -953 130 C-952.34074049 129.99959982 -951.68148099 129.99919963 -951.00224392 129.99878732 C-879.20837809 129.95510133 -807.41451508 129.90770989 -735.6206665 129.84101868 C-734.0113636 129.83952533 -734.0113636 129.83952533 -732.36954952 129.83800181 C-709.05177715 129.81634197 -685.73400545 129.79401918 -662.41623436 129.77101372 C-650.98077745 129.75973546 -639.54532041 129.74860365 -628.10986328 129.73754883 C-626.97191349 129.73644626 -625.83396369 129.7353437 -624.66153057 129.73420772 C-587.79444895 129.69855563 -550.92736824 129.67256973 -514.06027558 129.65161031 C-476.16638912 129.630016 -438.272523 129.59864226 -400.3786552 129.55500887 C-395.02324227 129.54884686 -389.66782921 129.54279634 -384.31241608 129.53681374 C-383.25842072 129.53563285 -382.20442536 129.53445197 -381.11849075 129.53323531 C-364.16972273 129.51453262 -347.22096451 129.50610239 -330.27218744 129.50153876 C-313.22226482 129.49672776 -296.17237947 129.48103469 -279.12247685 129.45433434 C-268.99976559 129.43881002 -258.87712789 129.43152876 -248.7544054 129.43623071 C-241.98134637 129.43855241 -235.20835654 129.42994103 -228.43531931 129.41267589 C-224.58322895 129.40316253 -220.73129152 129.39817798 -216.87919506 129.40660437 C-201.01374779 129.43808154 -185.6211339 129.01509951 -170 126 C-168.59999419 125.75100024 -167.19957586 125.50430694 -165.79872298 125.26011771 C-156.79488971 123.65643621 -148.23611686 121.06935808 -139.625 118.0625 C-138.93978271 117.82556427 -138.25456543 117.58862854 -137.54858398 117.34451294 C-106.42157503 106.51884132 -77.4380338 90.19457854 -53.48828125 67.37109375 C-51.38190659 65.36392041 -49.23388347 63.48581128 -47 61.625 C-27.5167907 44.5922562 -13.26021799 21.96455103 0 0 Z " fill="#375440" transform="translate(1205,1108)"/>
<path d="M0 0 C1.89257812 0.28027344 1.89257812 0.28027344 4 1 C5.34532124 3.75179345 6.44181914 6.38884609 7.5 9.25 C16.61621137 32.24194329 30.75022435 52.50707715 47 71 C47.56589844 71.67675781 48.13179687 72.35351562 48.71484375 73.05078125 C58.39542474 84.55416884 69.33727377 94.82658815 81.38720703 103.78857422 C82.89097568 104.91810798 84.36670003 106.08471241 85.83984375 107.25390625 C125.09456053 138.03004465 172.32922951 150.43689376 221 156 C221 156.33 221 156.66 221 157 C194.12157693 158.39346663 166.76563246 152.35021573 142 142 C141.19594727 141.6695166 140.39189453 141.3390332 139.56347656 140.99853516 C120.56149602 133.17276503 120.56149602 133.17276503 113.15625 128.375 C110.79362952 126.86840143 108.36315431 125.60048576 105.875 124.3125 C90.95443759 116.2393345 77.74057157 105.47420367 65.2890625 94.04296875 C62.96904299 91.92106808 62.96904299 91.92106808 60.2109375 89.86328125 C59.48132813 89.24839844 58.75171875 88.63351562 58 88 C58 87.34 58 86.68 58 86 C57.40574219 85.7421875 56.81148437 85.484375 56.19921875 85.21875 C53.80697497 83.89303053 52.55218361 82.59621136 50.8125 80.5 C48.24689505 77.45164909 45.60811656 74.52360802 42.875 71.625 C32.87559351 60.53164135 24.52981665 47.86209024 17 35 C16.35804687 33.95328125 15.71609375 32.9065625 15.0546875 31.828125 C8.97555779 21.67240242 4.48227409 10.9333683 0 0 Z " fill="#1B3924" transform="translate(36,1083)"/>
<path d="M0 0 C28.60909824 5.80877739 55.75449649 16.36203554 80.65576172 31.55957031 C81.22842773 31.90842285 81.80109375 32.25727539 82.39111328 32.61669922 C91.26021141 38.05787871 99.51054037 44.09527362 107.65576172 50.55957031 C108.65736328 51.33171875 109.65896484 52.10386719 110.69091797 52.89941406 C111.60744141 53.61226562 112.52396484 54.32511719 113.46826172 55.05957031 C114.27908203 55.68863281 115.08990234 56.31769531 115.92529297 56.96582031 C116.49634766 57.49175781 117.06740234 58.01769531 117.65576172 58.55957031 C117.65576172 59.21957031 117.65576172 59.87957031 117.65576172 60.55957031 C118.24454102 60.82382813 118.83332031 61.08808594 119.43994141 61.36035156 C121.73648756 62.60325975 123.26409338 63.90963512 125.10888672 65.74707031 C125.72763672 66.36324219 126.34638672 66.97941406 126.98388672 67.61425781 C127.61810547 68.25621094 128.25232422 68.89816406 128.90576172 69.55957031 C129.88029297 70.5225 129.88029297 70.5225 130.87451172 71.50488281 C131.79490234 72.42914063 131.79490234 72.42914063 132.73388672 73.37207031 C133.29495117 73.93539062 133.85601563 74.49871094 134.43408203 75.07910156 C135.65576172 76.55957031 135.65576172 76.55957031 135.65576172 78.55957031 C136.64576172 78.88957031 137.63576172 79.21957031 138.65576172 79.55957031 C140.55466055 81.77446911 142.33701853 83.98672122 144.09326172 86.30957031 C145.05017071 87.55445596 146.00719993 88.79924922 146.96435547 90.04394531 C147.42471191 90.64787109 147.88506836 91.25179687 148.359375 91.87402344 C149.46486466 93.31136819 150.59852699 94.72697197 151.73779297 96.13769531 C161.24420203 108.14171491 169.76497067 121.42733601 175.65576172 135.55957031 C174.66576172 135.55957031 173.67576172 135.55957031 172.65576172 135.55957031 C172.02669922 134.39941406 171.39763672 133.23925781 170.74951172 132.04394531 C165.76320859 122.9147982 160.65735261 114.06691707 154.65576172 105.55957031 C153.72183594 104.21378906 153.72183594 104.21378906 152.76904297 102.84082031 C147.4830585 95.37825401 141.6305171 88.47013075 135.65576172 81.55957031 C135.02669922 80.81707031 134.39763672 80.07457031 133.74951172 79.30957031 C125.87672932 70.09990033 117.19181001 62.01406104 107.65576172 54.55957031 C107.01687012 54.05490234 106.37797852 53.55023438 105.71972656 53.03027344 C96.68528489 45.90773728 87.65605513 39.27727793 77.65576172 33.55957031 C76.97932617 33.16672852 76.30289062 32.77388672 75.60595703 32.36914062 C43.07504155 13.51714907 7.21413393 2.25321304 -30.34423828 -0.44042969 C-22.57584977 -5.61935536 -8.84373406 -1.66153887 0 0 Z " fill="#1C3B25" transform="translate(1034.34423828125,19.4404296875)"/>
<path d="M0 0 C-3.22464021 2.14976014 -5.11063438 2.53067576 -8.890625 3.1484375 C-10.0677002 3.34687256 -11.24477539 3.54530762 -12.45751953 3.74975586 C-13.70903809 3.95608643 -14.96055664 4.16241699 -16.25 4.375 C-26.35225775 6.11569083 -36.20001054 7.95331416 -46 11 C-46.6811084 11.20705566 -47.3622168 11.41411133 -48.06396484 11.62744141 C-80.97831248 21.71161945 -110.88827332 38.66956495 -137 61 C-137.64187256 61.54760986 -138.28374512 62.09521973 -138.94506836 62.65942383 C-151.62362311 73.60450368 -163.04963121 85.53359983 -173 99 C-173.54398438 99.69867188 -174.08796875 100.39734375 -174.6484375 101.1171875 C-185.02899722 114.48000747 -193.10459668 129.08214449 -201 144 C-202.01381271 140.82716556 -202.0590824 140.15157561 -200.77734375 136.86328125 C-200.17019531 135.69152344 -199.56304687 134.51976562 -198.9375 133.3125 C-198.61676514 132.69109131 -198.29603027 132.06968262 -197.96557617 131.42944336 C-195.67857664 127.07618408 -193.14291718 122.96559019 -190.32421875 118.93359375 C-188.82609833 116.81053383 -188.82609833 116.81053383 -187.125 113.625 C-182.50668118 105.37664458 -176.31852334 98.02017981 -170.296875 90.7734375 C-168.72637315 88.87708322 -167.17505478 86.96472106 -165.640625 85.0390625 C-159.13830125 76.90024787 -159.13830125 76.90024787 -155.8125 74.25 C-153.53808874 72.430471 -152.09117442 70.97334302 -150.3125 68.75 C-146.60337575 64.30478666 -142.16359357 60.87182818 -137.63183594 57.29931641 C-135.88681326 55.90987734 -134.16526909 54.49454908 -132.4453125 53.07421875 C-124.31886607 46.39774135 -116.01868614 40.41774696 -107 35 C-106.25041016 34.54125488 -105.50082031 34.08250977 -104.72851562 33.60986328 C-91.03457391 25.26975781 -76.97986284 18.69521942 -62 13 C-61.21592773 12.69868164 -60.43185547 12.39736328 -59.62402344 12.08691406 C-40.9798108 5.04243853 -20.02801932 -0.43539172 0 0 Z " fill="#193823" transform="translate(246,17)"/>
<path d="M0 0 C0.81646693 2.32050187 1.17991031 3.53421732 0.27832031 5.8684082 C-0.31577637 6.82493286 -0.31577637 6.82493286 -0.921875 7.80078125 C-1.3648291 8.52322021 -1.8077832 9.24565918 -2.26416016 9.98999023 C-2.99965088 11.13963257 -2.99965088 11.13963257 -3.75 12.3125 C-4.24935059 13.10922119 -4.74870117 13.90594238 -5.26318359 14.72680664 C-12.70823377 26.45468672 -21.11484275 37.3378113 -30 48 C-30.70253906 48.92554688 -31.40507813 49.85109375 -32.12890625 50.8046875 C-32.74636719 51.52914063 -33.36382813 52.25359375 -34 53 C-34.66 53 -35.32 53 -36 53 C-36.2371875 53.56203125 -36.474375 54.1240625 -36.71875 54.703125 C-38.28947697 57.51894042 -40.21471464 59.47955416 -42.5 61.75 C-43.2940625 62.54921875 -44.088125 63.3484375 -44.90625 64.171875 C-47 66 -47 66 -49 66 C-49.26167969 66.59554688 -49.52335937 67.19109375 -49.79296875 67.8046875 C-65.90524593 97.10921752 -121.65354989 116.33343076 -151.3828125 125.16796875 C-166.31501187 129.43213916 -182.4783088 133.25314872 -198 131 C-198 130.67 -198 130.34 -198 130 C-197.44352783 129.93006836 -196.88705566 129.86013672 -196.3137207 129.78808594 C-189.53251986 128.92561647 -182.76542904 127.97792298 -176 127 C-174.71923584 126.82307617 -174.71923584 126.82307617 -173.41259766 126.64257812 C-129.42194526 120.36959083 -85.52041638 97.89687674 -53.48828125 67.37109375 C-51.38190659 65.36392041 -49.23388347 63.48581128 -47 61.625 C-27.5167907 44.5922562 -13.26021799 21.96455103 0 0 Z " fill="#1E4027" transform="translate(1205,1108)"/>
<path d="M0 0 C0.33 0 0.66 0 1 0 C1.19665588 31.29549762 1.37709051 62.5910388 1.53537826 93.88675207 C1.5541471 97.59483076 1.57305197 101.30290875 1.59204102 105.01098633 C1.59581856 105.74909165 1.59959611 106.48719696 1.60348812 107.24766911 C1.66470275 119.14541497 1.73689713 131.04306953 1.8132638 142.94072669 C1.89157419 155.17996197 1.95781977 167.41922126 2.01323253 179.65858179 C2.04770015 187.19010422 2.09119715 194.7214569 2.14684484 202.2528531 C2.18874524 208.06131813 2.21373114 213.86976859 2.2329216 219.67834854 C2.24323529 222.0367244 2.25872828 224.39508525 2.28024101 226.75338554 C2.4218204 242.72393662 1.27427386 258.18852972 -1 274 C-1.66 273.67 -2.32 273.34 -3 273 C-2.93107544 272.01767899 -2.86215088 271.03535797 -2.7911377 270.02326965 C-1.78436534 254.3127969 -1.79591379 238.58848719 -1.72952008 222.852947 C-1.71110915 218.74389008 -1.68725113 214.63486457 -1.66392517 210.52583313 C-1.62480197 203.52838266 -1.58847465 196.53092294 -1.5541687 189.53344727 C-1.46954582 172.32320354 -1.36965909 155.1130437 -1.26957965 137.90288401 C-1.25389636 135.1975133 -1.23837581 132.4921417 -1.22288704 129.78676987 C-1.04525548 98.85682027 -0.78915099 67.92852086 -0.4375 37 C-0.42633148 36.01166042 -0.41516296 35.02332085 -0.40365601 34.00503159 C-0.27539177 22.66994248 -0.14207524 11.33492472 0 0 Z " fill="#26442F" transform="translate(1234,760)"/>
<path d="M0 0 C2.1712833 3.61573871 2.64213795 7.3400068 3.25 11.4375 C5.48873781 25.22818539 9.59475542 38.72698526 14.43359375 51.8203125 C15 54 15 54 14 57 C10.53878853 53.17169035 9.2202575 48.62052777 7.625 43.8125 C7.32335938 42.9035498 7.02171875 41.99459961 6.7109375 41.05810547 C4.35452104 33.6705901 2.55502426 26.21905684 1 18.625 C0.78037598 17.57417236 0.56075195 16.52334473 0.33447266 15.44067383 C-0.72709723 9.94348006 -1.2354444 5.48228454 0 0 Z " fill="#1D3B27" transform="translate(23,1025)"/>
<path d="M0 0 C1 2 1 2 0.42675781 3.92016602 C0.10545898 4.69030029 -0.21583984 5.46043457 -0.546875 6.25390625 C-0.8975 7.10919922 -1.248125 7.96449219 -1.609375 8.84570312 C-1.98578125 9.74224609 -2.3621875 10.63878906 -2.75 11.5625 C-5.15511505 17.35625037 -7.45532228 23.10468442 -9.29785156 29.10522461 C-10 31 -10 31 -12 34 C-12.33164916 28.25643962 -11.27092825 23.97720808 -9.25 18.625 C-8.97704102 17.88056641 -8.70408203 17.13613281 -8.42285156 16.36914062 C-2.88980417 1.44490209 -2.88980417 1.44490209 0 0 Z " fill="#1C3F29" transform="translate(43,162)"/>
<path d="M0 0 C1.87719727 0.25610352 1.87719727 0.25610352 4 1 C5.10913086 2.69897461 5.10913086 2.69897461 5.96484375 4.90234375 C6.28775391 5.70631592 6.61066406 6.51028809 6.94335938 7.33862305 C7.43545898 8.62506714 7.43545898 8.62506714 7.9375 9.9375 C8.6315899 11.67288691 9.32818754 13.40727301 10.02734375 15.140625 C10.36233887 15.97787109 10.69733398 16.81511719 11.04248047 17.67773438 C12.78615599 21.90665879 14.84439673 25.96860735 17 30 C16.34 30.66 15.68 31.32 15 32 C9.6162756 21.48425779 4.62580195 10.87063457 0 0 Z " fill="#21442C" transform="translate(36,1083)"/>
<path d="M0 0 C0.99 0 1.98 0 3 0 C0.85359902 7.19675622 -2.14673959 13.79160247 -5.37890625 20.546875 C-6.68970989 23.33904467 -7.89592783 26.1217223 -9 29 C-9.99 29 -10.98 29 -12 29 C-10.560091 24.34357786 -8.67337464 20.00680768 -6.5625 15.625 C-4.12190938 10.48734564 -1.86644399 5.37975031 0 0 Z " fill="#1B3725" transform="translate(1218,1078)"/>
<path d="M0 0 C0.33 0 0.66 0 1 0 C2.69222386 6.86728054 0.99987489 12.64038974 -0.75 19.375 C-1.01554687 20.47972656 -1.28109375 21.58445312 -1.5546875 22.72265625 C-1.82023437 23.77066406 -2.08578125 24.81867188 -2.359375 25.8984375 C-2.60139648 26.85411621 -2.84341797 27.80979492 -3.09277344 28.79443359 C-3.3921582 29.52227051 -3.69154297 30.25010742 -4 31 C-4.99 31.33 -5.98 31.66 -7 32 C-6.22267645 25.22055786 -4.55958295 18.68255547 -2.9375 12.0625 C-2.65583984 10.90169922 -2.37417969 9.74089844 -2.08398438 8.54492188 C-1.39224412 5.69588997 -0.69750122 2.84762595 0 0 Z " fill="#23402B" transform="translate(1230,1034)"/>
<path d="M0 0 C0.66 0 1.32 0 2 0 C2.95972174 2.54115002 3.91781494 5.08289457 4.875 7.625 C5.14441406 8.33785156 5.41382813 9.05070313 5.69140625 9.78515625 C6.46948671 11.85371162 7.23687757 13.9258855 8 16 C8.391875 17.0621875 8.78375 18.124375 9.1875 19.21875 C9.98225723 21.93926513 10.21038739 24.05721608 10.125 26.875 C10.10695313 27.65617187 10.08890625 28.43734375 10.0703125 29.2421875 C10.03550781 30.11230469 10.03550781 30.11230469 10 31 C8.10367454 28.1555118 7.28409286 26.08427157 6.30859375 22.8515625 C6.00373047 21.84609375 5.69886719 20.840625 5.38476562 19.8046875 C5.07216797 18.75539062 4.75957031 17.70609375 4.4375 16.625 C4.12103516 15.5834375 3.80457031 14.541875 3.47851562 13.46875 C2.13134539 8.99534394 0.85613248 4.59684476 0 0 Z " fill="#1B3E24" transform="translate(1217,175)"/>
<path d="M0 0 C0 0.66 0 1.32 0 2 C-11.33693144 4.59736614 -21.42750484 6.67987833 -33 5 C-33 4.67 -33 4.34 -33 4 C-32.36497559 3.91435791 -31.72995117 3.82871582 -31.07568359 3.74047852 C-28.17532581 3.34877417 -25.27516225 2.95564936 -22.375 2.5625 C-21.37597656 2.42779297 -20.37695312 2.29308594 -19.34765625 2.15429688 C-15.37833108 1.61541498 -11.41932516 1.070506 -7.46875 0.40625 C-4.93679374 -0.01040103 -2.56127581 -0.07533164 0 0 Z " fill="#173823" transform="translate(1040,1234)"/>
<path d="M0 0 C6.41069287 5.27101414 12.18590512 11.09128152 18 17 C17.01 17.33 16.02 17.66 15 18 C13.17578125 16.85546875 13.17578125 16.85546875 11.3125 15.1875 C10.68988281 14.64480469 10.06726563 14.10210938 9.42578125 13.54296875 C8 12 8 12 8 10 C7.4225 9.7525 6.845 9.505 6.25 9.25 C3.62776908 7.79320504 1.90746919 6.31621258 0 4 C0 2.68 0 1.36 0 0 Z " fill="#17301F" transform="translate(86,1159)"/>
<path d="M0 0 C0.66 0.99 1.32 1.98 2 3 C-1.63 9.6 -5.26 16.2 -9 23 C-10.2056146 18.1775416 -8.97034854 16.19408974 -6.75 12.0625 C-6.43675781 11.45470703 -6.12351563 10.84691406 -5.80078125 10.22070312 C-3.98926957 6.73673772 -2.05625753 3.34459172 0 0 Z " fill="#21402E" transform="translate(54,138)"/>
<path d="M0 0 C7.92 0 15.84 0 24 0 C24.33 0.99 24.66 1.98 25 3 C21.39598519 3.08701039 17.79223988 3.14039388 14.1875 3.1875 C12.65125977 3.22520508 12.65125977 3.22520508 11.08398438 3.26367188 C9.60961914 3.27817383 9.60961914 3.27817383 8.10546875 3.29296875 C7.19949951 3.3086792 6.29353027 3.32438965 5.36010742 3.34057617 C3 3 3 3 0 0 Z " fill="#64796B" transform="translate(619,469)"/>
<path d="M0 0 C1.01573289 3.04719867 1.0097124 3.98833004 0.44140625 7.01171875 C0.30283203 7.76904297 0.16425781 8.52636719 0.02148438 9.30664062 C-0.12998047 10.09232422 -0.28144531 10.87800781 -0.4375 11.6875 C-0.58509766 12.48478516 -0.73269531 13.28207031 -0.88476562 14.10351562 C-1.24984964 16.07025852 -1.62405289 18.03530467 -2 20 C-2.99 19.34 -3.98 18.68 -5 18 C-4.55120234 15.37303769 -4.09145886 12.74883107 -3.625 10.125 C-3.49867187 9.37863281 -3.37234375 8.63226563 -3.2421875 7.86328125 C-2.2265625 2.2265625 -2.2265625 2.2265625 0 0 Z " fill="#1A3422" transform="translate(27,209)"/>
<path d="M0 0 C6.40064952 0.02970139 12.16365335 0.16151703 18.2421875 2.265625 C18.5721875 2.925625 18.9021875 3.585625 19.2421875 4.265625 C11.3221875 3.605625 3.4021875 2.945625 -4.7578125 2.265625 C-2.7578125 0.265625 -2.7578125 0.265625 0 0 Z " fill="#4E6555" transform="translate(497.7578125,145.734375)"/>
<path d="M0 0 C0.66 0.33 1.32 0.66 2 1 C-2.60136502 6.53601728 -7.46398272 11.39863498 -13 16 C-13.66 15.67 -14.32 15.34 -15 15 C-10.05 10.05 -5.1 5.1 0 0 Z " fill="#ECEDEB" transform="translate(520,515)"/>
<path d="M0 0 C3 1 3 1 4.640625 4.08984375 C5.18842218 5.36759397 5.72445938 6.65043572 6.25 7.9375 C6.53101563 8.58396484 6.81203125 9.23042969 7.1015625 9.89648438 C7.80373244 11.57022115 8.40920546 13.28378346 9 15 C8.67 15.66 8.34 16.32 8 17 C7.34 17 6.68 17 6 17 C5.18457569 14.91780951 4.37276811 12.83420239 3.5625 10.75 C3.11003906 9.58984375 2.65757813 8.4296875 2.19140625 7.234375 C1.29849367 4.81033692 0.54205635 2.51713525 0 0 Z " fill="#203D2C" transform="translate(1209,157)"/>
<path d="M0 0 C6.93 2.97 6.93 2.97 14 6 C13.67 6.66 13.34 7.32 13 8 C7.76727367 6.36041242 2.84803364 4.61047965 -2 2 C-1.34 1.34 -0.68 0.68 0 0 Z " fill="#16331D" transform="translate(1079,33)"/>
<path d="M0 0 C0.66 0.33 1.32 0.66 2 1 C0.46356148 4.68069887 -1.78150945 6.98775204 -4.625 9.75 C-5.85089844 10.94882813 -5.85089844 10.94882813 -7.1015625 12.171875 C-7.72804688 12.77515625 -8.35453125 13.3784375 -9 14 C-9.33 13.01 -9.66 12.02 -10 11 C-9.44570312 10.45730469 -8.89140625 9.91460938 -8.3203125 9.35546875 C-7.23363281 8.28232422 -7.23363281 8.28232422 -6.125 7.1875 C-5.40570312 6.47980469 -4.68640625 5.77210937 -3.9453125 5.04296875 C-1.84641063 2.95600806 -1.84641063 2.95600806 0 0 Z " fill="#22412C" transform="translate(1167,1160)"/>
<path d="M0 0 C0.99 0.33 1.98 0.66 3 1 C2.34 5.95 1.68 10.9 1 16 C0.34 15.67 -0.32 15.34 -1 15 C-0.67 10.05 -0.34 5.1 0 0 Z " fill="#173922" transform="translate(1232,1018)"/>
<path d="M0 0 C0 3 0 3 -2.40625 5.69921875 C-3.4299968 6.70302243 -4.4616054 7.69885649 -5.5 8.6875 C-6.02464844 9.19861328 -6.54929687 9.70972656 -7.08984375 10.23632812 C-8.38660904 11.49772708 -9.69246117 12.74977212 -11 14 C-11.66 13.67 -12.32 13.34 -13 13 C-11.58791833 11.39179588 -10.17013964 9.78859292 -8.75 8.1875 C-7.96109375 7.29417969 -7.1721875 6.40085937 -6.359375 5.48046875 C-4.34120555 3.35871775 -2.40083295 1.65745577 0 0 Z " fill="#ECEDE9" transform="translate(898,370)"/>
<path d="M0 0 C0.33 0.66 0.66 1.32 1 2 C1.66 2 2.32 2 3 2 C5.48063781 12.37357631 5.48063781 12.37357631 4 18 C1.82971933 14.38894478 1.41193503 10.89207026 0.875 6.75 C0.70742187 5.48671875 0.53984375 4.2234375 0.3671875 2.921875 C0.24601562 1.95765625 0.12484375 0.9934375 0 0 Z " fill="#1A3A23" transform="translate(1227,208)"/>
<path d="M0 0 C0.99 0.66 1.98 1.32 3 2 C0.88002166 3.19733988 -1.24513676 4.38298713 -3.375 5.5625 C-3.97828125 5.90474609 -4.5815625 6.24699219 -5.203125 6.59960938 C-6.76978241 7.46127095 -8.38290862 8.23718183 -10 9 C-10.66 8.67 -11.32 8.34 -12 8 C-9.69716746 5.45868642 -7.32686207 3.92889705 -4.3125 2.3125 C-3.50425781 1.87550781 -2.69601562 1.43851563 -1.86328125 0.98828125 C-1.24839844 0.66214844 -0.63351562 0.33601563 0 0 Z " fill="#27442F" transform="translate(1108,1207)"/>
<path d="M0 0 C0.99 0.33 1.98 0.66 3 1 C2.67 7.93 2.34 14.86 2 22 C1.67 22 1.34 22 1 22 C0.67 14.74 0.34 7.48 0 0 Z " fill="#5E6959" transform="translate(1095,633)"/>
<path d="M0 0 C0.33 0 0.66 0 1 0 C1.33 5.28 1.66 10.56 2 16 C1.34 16 0.68 16 0 16 C0 17.98 0 19.96 0 22 C-0.33 22 -0.66 22 -1 22 C-0.67 14.74 -0.34 7.48 0 0 Z " fill="#5E6759" transform="translate(1096,706)"/>
<path d="M0 0 C1.58400468 2.85640188 2.3725034 5.25797039 2.75 8.5 C2.84796875 9.2528125 2.9459375 10.005625 3.046875 10.78125 C2.9926939 13.34582212 2.29270519 14.81234507 1 17 C-1.48063781 5.47835991 -1.48063781 5.47835991 0 0 Z " fill="#25402C" transform="translate(23,1025)"/>
<path d="M0 0 C-0.99 0 -1.98 0 -3 0 C-3 0.66 -3 1.32 -3 2 C-4.60049704 2.39036513 -6.20562371 2.76178619 -7.8125 3.125 C-8.70582031 3.33382813 -9.59914063 3.54265625 -10.51953125 3.7578125 C-13 4 -13 4 -16 2 C-14.08654673 1.46748234 -12.1690705 0.94940517 -10.25 0.4375 C-9.18265625 0.14746094 -8.1153125 -0.14257812 -7.015625 -0.44140625 C-4.15664073 -0.97098494 -2.68402617 -0.98370862 0 0 Z " fill="#BC907E" transform="translate(741,1078)"/>
<path d="M0 0 C0.99 0 1.98 0 3 0 C2.52269162 1.4589426 2.04308958 2.91713496 1.5625 4.375 C1.29566406 5.18710938 1.02882813 5.99921875 0.75390625 6.8359375 C0 9 0 9 -1 11 C-1.99 10.67 -2.98 10.34 -4 10 C-2.68 6.7 -1.36 3.4 0 0 Z " fill="#214128" transform="translate(1218,1078)"/>
<path d="M0 0 C0.66 0 1.32 0 2 0 C2.67260351 1.76858691 3.33788395 3.53996016 4 5.3125 C4.37125 6.29863281 4.7425 7.28476562 5.125 8.30078125 C6 11 6 11 6 14 C5.34 14 4.68 14 4 14 C3.32739649 12.23141309 2.66211605 10.46003984 2 8.6875 C1.62875 7.70136719 1.2575 6.71523438 0.875 5.69921875 C0 3 0 3 0 0 Z " fill="#DEE2DF" transform="translate(924,770)"/>
<path d="M0 0 C3.93548431 3.06093224 6.68116787 5.49115974 9 10 C6.27425729 9.62669176 5.19177915 9.20805399 3.296875 7.15234375 C2.53117187 6.05599609 2.53117187 6.05599609 1.75 4.9375 C1.22921875 4.20402344 0.7084375 3.47054687 0.171875 2.71484375 C-0.21484375 2.14894531 -0.6015625 1.58304687 -1 1 C-0.67 0.67 -0.34 0.34 0 0 Z " fill="#214428" transform="translate(1172,100)"/>
<path d="M0 0 C2 0 2 0 3.69140625 1.6796875 C4.30886719 2.40414062 4.92632812 3.12859375 5.5625 3.875 C6.18253906 4.59429688 6.80257812 5.31359375 7.44140625 6.0546875 C9 8 9 8 10 10 C8.68 10.33 7.36 10.66 6 11 C4.02 7.37 2.04 3.74 0 0 Z " fill="#BE9383" transform="translate(219,905)"/>
<path d="M0 0 C-1.38188453 3.21043882 -2.92421903 5.04936365 -5.625 7.25 C-6.57246094 8.03117188 -6.57246094 8.03117188 -7.5390625 8.828125 C-8.02117188 9.21484375 -8.50328125 9.6015625 -9 10 C-9 7 -9 7 -7.5390625 5.17578125 C-6.90742187 4.56089844 -6.27578125 3.94601562 -5.625 3.3125 C-4.68527344 2.37857422 -4.68527344 2.37857422 -3.7265625 1.42578125 C-2 0 -2 0 0 0 Z " fill="#C79788" transform="translate(523,765)"/>
<path d="M0 0 C0.33 0 0.66 0 1 0 C1.93213141 6.26039609 2.20927172 11.02197063 0 17 C-0.33 17 -0.66 17 -1 17 C-0.67 11.39 -0.34 5.78 0 0 Z " fill="#5C6759" transform="translate(1094,730)"/>
<path d="M0 0 C0.66 0.33 1.32 0.66 2 1 C1.0919838 2.13199353 0.17316174 3.25532363 -0.75 4.375 C-1.26046875 5.00148438 -1.7709375 5.62796875 -2.296875 6.2734375 C-4.08199481 8.08312318 -5.67949644 9.00117455 -8 10 C-6.34908222 5.70761377 -3.26245434 3.1206085 0 0 Z " fill="#F5EDE9" transform="translate(737,654)"/>
<path d="M0 0 C0 0.66 0 1.32 0 2 C-9.41002278 3.14806378 -9.41002278 3.14806378 -14 3 C-9.25294723 -0.16470185 -5.68228705 -0.10927475 0 0 Z " fill="#EDEFED" transform="translate(292,350)"/>
<path d="M0 0 C0.99 0.33 1.98 0.66 3 1 C0.36 3.64 -2.28 6.28 -5 9 C-5.66 8.34 -6.32 7.68 -7 7 C-4.69 4.69 -2.38 2.38 0 0 Z " fill="#516958" transform="translate(380,589)"/>
<path d="M0 0 C0.33 0 0.66 0 1 0 C1.33 2.64 1.66 5.28 2 8 C2.33 8 2.66 8 3 8 C2.67 10.64 2.34 13.28 2 16 C-0.42130331 12.36804504 -0.21022785 10.61650652 -0.125 6.3125 C-0.09792969 4.54326172 -0.09792969 4.54326172 -0.0703125 2.73828125 C-0.04710937 1.83464844 -0.02390625 0.93101562 0 0 Z " fill="#1C3423" transform="translate(1233,244)"/>
<path d="M0 0 C3.5742977 0.32493615 5.55712453 0.63870686 8.375 2.9375 C10 5 10 5 10 7 C6.42032008 5.34784004 3.22017048 3.26875648 0 1 C0 0.67 0 0.34 0 0 Z " fill="#12381B" transform="translate(1122,58)"/>
<path d="M0 0 C4.87362847 0.45336079 7.39042389 1.7089159 11 5 C8 6 8 6 5.95703125 5.0390625 C5.24933594 4.57242187 4.54164063 4.10578125 3.8125 3.625 C3.09707031 3.16351562 2.38164062 2.70203125 1.64453125 2.2265625 C1.10183594 1.82179688 0.55914062 1.41703125 0 1 C0 0.67 0 0.34 0 0 Z " fill="#24442B" transform="translate(135,1202)"/>
<path d="M0 0 C3.14027363 0.33645789 4.05098295 1.05236086 6.3125 3.375 C6.869375 4.24125 7.42625 5.1075 8 6 C7.67 6.99 7.34 7.98 7 9 C5.83037314 7.69013727 4.66437056 6.3770374 3.5 5.0625 C2.8503125 4.33160156 2.200625 3.60070313 1.53125 2.84765625 C0 1 0 1 0 0 Z " fill="#21422B" transform="translate(78,1152)"/>
<path d="M0 0 C2.34191563 2.1290142 3.83554954 4.04408729 5 7 C5 8.32 5 9.64 5 11 C4.34 11 3.68 11 3 11 C0 4.5 0 4.5 0 0 Z " fill="#1A3924" transform="translate(42,1093)"/>
<path d="M0 0 C5.61 0.66 11.22 1.32 17 2 C17 2.33 17 2.66 17 3 C14.36 3.33 11.72 3.66 9 4 C9 3.34 9 2.68 9 2 C7.02 2.33 5.04 2.66 3 3 C3 2.34 3 1.68 3 1 C2.01 0.67 1.02 0.34 0 0 Z " fill="#6A6E5E" transform="translate(557,1126)"/>
<path d="M0 0 C-1.44253657 3.36591866 -3.33264727 5.51047079 -6 8 C-6.99 7.67 -7.98 7.34 -9 7 C-7.88121617 5.82737096 -6.75476949 4.66204862 -5.625 3.5 C-4.68527344 2.52546875 -4.68527344 2.52546875 -3.7265625 1.53125 C-2 0 -2 0 0 0 Z " fill="#546C5C" transform="translate(902,953)"/>
<path d="M0 0 C3.3 1.98 6.6 3.96 10 6 C6 7 6 7 2.75 5.25 C1.8425 4.5075 0.935 3.765 0 3 C0 2.01 0 1.02 0 0 Z " fill="#253D2B" transform="translate(1114,51)"/>
<path d="M0 0 C0.33 0.99 0.66 1.98 1 3 C-4.75 6 -4.75 6 -7 6 C-7 5.01 -7 4.02 -7 3 C-4.69 2.01 -2.38 1.02 0 0 Z " fill="#13341B" transform="translate(163,39)"/>
<path d="M0 0 C-0.99 0 -1.98 0 -3 0 C-3 0.66 -3 1.32 -3 2 C-6.3 2.33 -9.6 2.66 -13 3 C-9.54666565 -0.45333435 -4.63654999 -1.85462 0 0 Z " fill="#194122" transform="translate(210,24)"/>
<path d="M0 0 C0.66 0.33 1.32 0.66 2 1 C2 1.66 2 2.32 2 3 C-0.64 3.99 -3.28 4.98 -6 6 C-6.66 5.34 -7.32 4.68 -8 4 C-6.71349294 3.30289269 -5.42059335 2.61757124 -4.125 1.9375 C-3.40570312 1.55464844 -2.68640625 1.17179687 -1.9453125 0.77734375 C-1.30335937 0.52082031 -0.66140625 0.26429687 0 0 Z " fill="#1D3626" transform="translate(1095,1214)"/>
<path d="M0 0 C0.66 0.33 1.32 0.66 2 1 C2 3.97 2 6.94 2 10 C1.01 9.67 0.02 9.34 -1 9 C-0.67 6.03 -0.34 3.06 0 0 Z " fill="#304E37" transform="translate(1233,1009)"/>
<path d="M0 0 C2.02350324 3.03525486 2.32124018 4.19426202 2.625 7.6875 C2.69976562 8.49574219 2.77453125 9.30398438 2.8515625 10.13671875 C2.90054687 10.75160156 2.94953125 11.36648438 3 12 C1 11 1 11 0.33203125 9.00390625 C0.16058594 8.19824219 -0.01085937 7.39257812 -0.1875 6.5625 C-0.36667969 5.75941406 -0.54585938 4.95632813 -0.73046875 4.12890625 C-1 2 -1 2 0 0 Z " fill="#516958" transform="translate(318,882)"/>
<path d="M0 0 C0.33 0 0.66 0 1 0 C1.91297308 4.97063121 1.91297308 9.02936879 1 14 C0.67 14 0.34 14 0 14 C-0.19393875 11.85473901 -0.37998676 9.70876323 -0.5625 7.5625 C-0.71912109 5.77005859 -0.71912109 5.77005859 -0.87890625 3.94140625 C-0.91886719 2.97074219 -0.95882813 2.00007812 -1 1 C-0.67 0.67 -0.34 0.34 0 0 Z " fill="#0D3216" transform="translate(1232,226)"/>
<path d="M0 0 C4.31392226 0.4793247 6.16569547 1.7457985 9 5 C5 5 5 5 2.25 2.5 C1.5075 1.675 0.765 0.85 0 0 Z " fill="#26432E" transform="translate(110,1184)"/>
<path d="M0 0 C0.66 0 1.32 0 2 0 C2 0.66 2 1.32 2 2 C3.32 2.33 4.64 2.66 6 3 C6.33 4.32 6.66 5.64 7 7 C4.03 5.35 1.06 3.7 -2 2 C-1.34 1.34 -0.68 0.68 0 0 Z " fill="#536A5B" transform="translate(710,493)"/>
<path d="M0 0 C1.41623216 -0.05447047 2.83308191 -0.09300508 4.25 -0.125 C5.03890625 -0.14820313 5.8278125 -0.17140625 6.640625 -0.1953125 C9 0 9 0 13 2 C8.545 2.495 8.545 2.495 4 3 C4 2.34 4 1.68 4 1 C2.68 0.67 1.36 0.34 0 0 Z " fill="#103319" transform="translate(233,1237)"/>
<path d="M0 0 C0.33 0.99 0.66 1.98 1 3 C-0.25 5.1875 -0.25 5.1875 -2 7 C-2.99 7 -3.98 7 -5 7 C-3.70700306 4.11562221 -2.34058637 2.12780579 0 0 Z " fill="#163020" transform="translate(1173,1154)"/>
<path d="M0 0 C0.33 1.32 0.66 2.64 1 4 C-0.9375 6.25 -0.9375 6.25 -3 8 C-3.99 7.67 -4.98 7.34 -6 7 C-4.02 4.69 -2.04 2.38 0 0 Z " fill="#E2E4E2" transform="translate(504,531)"/>
<path d="M0 0 C-1.29299694 2.88437779 -2.65941363 4.87219421 -5 7 C-5.99 6.67 -6.98 6.34 -8 6 C-7.0479279 4.99403703 -6.08812654 3.99538437 -5.125 3 C-4.59132813 2.443125 -4.05765625 1.88625 -3.5078125 1.3125 C-2 0 -2 0 0 0 Z " fill="#EEEFEC" transform="translate(706,167)"/>
<path d="M0 0 C0.66 0.99 1.32 1.98 2 3 C-0.30368736 4.06652192 -2.64018187 5.06421005 -5 6 C-5.66 5.67 -6.32 5.34 -7 5 C-4.69 3.35 -2.38 1.7 0 0 Z " fill="#17321F" transform="translate(1130,1193)"/>
<path d="M0 0 C1.485 0.99 1.485 0.99 3 2 C3.1875 4.625 3.1875 4.625 3 7 C2.01 7 1.02 7 0 7 C0 4.69 0 2.38 0 0 Z " fill="#1E3424" transform="translate(1233,1002)"/>
<path d="M0 0 C0.99 0 1.98 0 3 0 C2.67 2.64 2.34 5.28 2 8 C1.01 7.34 0.02 6.68 -1 6 C-0.67 4.02 -0.34 2.04 0 0 Z " fill="#233F2B" transform="translate(23,221)"/>
<path d="M0 0 C-0.625 1.9375 -0.625 1.9375 -2 4 C-5.125 4.75 -5.125 4.75 -8 5 C-3.22727273 0 -3.22727273 0 0 0 Z " fill="#1A3523" transform="translate(1117,1203)"/>
<path d="M0 0 C0.99 0.33 1.98 0.66 3 1 C1.35 2.65 -0.3 4.3 -2 6 C-2.66 5.34 -3.32 4.68 -4 4 C-2.68 2.68 -1.36 1.36 0 0 Z " fill="#103918" transform="translate(1144,1182)"/>
<path d="M0 0 C1.32 0.33 2.64 0.66 4 1 C1.69 2.65 -0.62 4.3 -3 6 C-3 3 -3 3 -1.75 1.25 C-1.1725 0.8375 -0.595 0.425 0 0 Z " fill="#516958" transform="translate(889,964)"/>
<path d="M0 0 C0.66 0.66 1.32 1.32 2 2 C-0.97 4.475 -0.97 4.475 -4 7 C-4 4 -4 4 -2 1.8125 C-1.34 1.214375 -0.68 0.61625 0 0 Z " fill="#BF9283" transform="translate(968,938)"/>
<path d="M0 0 C0.99 0.33 1.98 0.66 3 1 C1.35 2.65 -0.3 4.3 -2 6 C-2.99 5.67 -3.98 5.34 -5 5 C-3.35 3.35 -1.7 1.7 0 0 Z " fill="#EDEEEB" transform="translate(692,179)"/>
<path d="M0 0 C1 2 1 2 0.25 4.5625 C-1 7 -1 7 -4 8 C-3.40138258 5.64828869 -2.73075648 3.3140622 -2 1 C-1.34 0.67 -0.68 0.34 0 0 Z " fill="#244633" transform="translate(43,162)"/>
<path d="M0 0 C2.8125 -0.1875 2.8125 -0.1875 6 0 C6.99 0.99 7.98 1.98 9 3 C6.03 2.67 3.06 2.34 0 2 C0 1.34 0 0.68 0 0 Z " fill="#566C5D" transform="translate(508,147)"/>
<path d="M0 0 C2.0625 1.75 2.0625 1.75 4 4 C3.75 6.25 3.75 6.25 3 8 C1.02 4.535 1.02 4.535 -1 1 C-0.67 0.67 -0.34 0.34 0 0 Z " fill="#21472C" transform="translate(1196,132)"/>
<path d="M0 0 C0.66 1.32 1.32 2.64 2 4 C0 7 0 7 -2 8 C-1.125 1.125 -1.125 1.125 0 0 Z " fill="#193422" transform="translate(1225,1058)"/>
<path d="M0 0 C0.99 0.33 1.98 0.66 3 1 C0.03 3.475 0.03 3.475 -3 6 C-3 3 -3 3 -1.5 1.3125 C-0.7575 0.6628125 -0.7575 0.6628125 0 0 Z " fill="#F4EBE6" transform="translate(540,768)"/>
<path d="M0 0 C1.80411967 2.75924185 2.0127245 3.88972103 1.625 7.25 C1.41875 8.1575 1.2125 9.065 1 10 C0.67 10 0.34 10 0 10 C-0.19412181 8.52168779 -0.38012131 7.04230684 -0.5625 5.5625 C-0.66691406 4.73878906 -0.77132813 3.91507813 -0.87890625 3.06640625 C-0.91886719 2.38449219 -0.95882813 1.70257812 -1 1 C-0.67 0.67 -0.34 0.34 0 0 Z " fill="#516455" transform="translate(1091,595)"/>
<path d="M0 0 C1.14926266 0.95421808 2.29430541 1.91352045 3.4375 2.875 C4.07558594 3.40867187 4.71367188 3.94234375 5.37109375 4.4921875 C7 6 7 6 8 8 C5.04987143 6.63029745 2.4347778 5.17390875 0 3 C0 2.01 0 1.02 0 0 Z " fill="#415949" transform="translate(873,589)"/>
<path d="M0 0 C-0.33 0.99 -0.66 1.98 -1 3 C-3.5625 4.1875 -3.5625 4.1875 -6 5 C-6.66 4.34 -7.32 3.68 -8 3 C-2.25 0 -2.25 0 0 0 Z " fill="#EDEFED" transform="translate(473,153)"/>
<path d="M0 0 C3.36720387 1.39332574 4.9859524 2.9789286 7 6 C3.75728494 5.4409112 2.06942576 4.5867822 0 2 C0 1.34 0 0.68 0 0 Z " fill="#224128" transform="translate(1153,81)"/>
<path d="M0 0 C2.475 0.495 2.475 0.495 5 1 C5 1.66 5 2.32 5 3 C5.66 3.33 6.32 3.66 7 4 C5.68 4 4.36 4 3 4 C1.25 2 1.25 2 0 0 Z " fill="#16371D" transform="translate(1147,77)"/>
<path d="M0 0 C2.625 0.9375 2.625 0.9375 5 2 C5 2.99 5 3.98 5 5 C2.08482708 3.92598892 0.22189824 3.22189824 -2 1 C-1.34 0.67 -0.68 0.34 0 0 Z " fill="#17311E" transform="translate(1109,48)"/>
<path d="" fill="#000000" transform="translate(0,0)"/>
<path d="" fill="#000000" transform="translate(0,0)"/>
</svg>
